<?xml version="1.0" standalone="no"?>
<!DOCTYPE svg PUBLIC "-//W3C//DTD SVG 20010904//EN"
 "http://www.w3.org/TR/2001/REC-SVG-20010904/DTD/svg10.dtd">
<svg version="1.0" xmlns="http://www.w3.org/2000/svg"
 width="460.000000pt" height="460.000000pt" viewBox="0 0 460.000000 460.000000"
 preserveAspectRatio="xMidYMid meet">
<metadata>
Created by potrace 1.14, written by Peter Selinger 2001-2017
</metadata>
<g transform="translate(0.000000,460.000000) scale(0.100000,-0.100000)"
fill="#000000" stroke="none">
<path d="M0 2300 l0 -2300 2300 0 2300 0 0 2300 0 2300 -2300 0 -2300 0 0
-2300z m2285 1704 c25 -313 46 -580 47 -594 2 -16 38 61 102 218 54 133 100
241 101 240 2 -2 -15 -122 -36 -268 -21 -145 -36 -266 -35 -268 2 -2 162 228
356 510 194 282 356 518 362 523 12 13 -27 -72 -297 -635 -125 -261 -230 -482
-233 -490 -3 -8 42 23 101 68 59 45 155 119 214 164 59 46 103 76 98 68 -5 -8
-65 -89 -135 -180 -69 -91 -139 -182 -154 -203 l-29 -37 44 19 c24 10 275 130
558 265 283 135 515 245 517 243 1 -1 -231 -162 -516 -357 -285 -195 -517
-356 -515 -358 1 -1 163 29 360 68 198 38 360 68 362 67 1 -2 -142 -61 -319
-132 -308 -124 -320 -130 -282 -137 21 -4 356 -30 744 -60 474 -35 690 -55
660 -59 -25 -4 -370 -33 -767 -65 -398 -32 -723 -61 -723 -64 0 -3 122 -63
271 -135 149 -71 267 -131 262 -132 -4 -2 -132 19 -283 47 -151 27 -276 48
-277 46 -2 -2 220 -145 494 -319 274 -174 507 -323 518 -331 11 -8 -238 98
-553 235 -316 138 -575 249 -577 247 -2 -2 77 -108 175 -236 99 -127 177 -232
174 -232 -3 0 -80 58 -172 128 -92 70 -172 131 -179 135 -14 9 7 -38 247 -538
188 -393 221 -465 216 -465 -1 0 -167 238 -367 529 -200 291 -364 529 -365
528 -1 -1 18 -139 42 -307 24 -168 43 -312 43 -320 0 -8 -46 99 -103 239
l-103 253 -6 -78 c-4 -44 -27 -450 -52 -904 -25 -454 -49 -841 -52 -860 -4
-19 -30 370 -59 865 -28 495 -53 915 -55 933 -3 27 -18 -3 -88 -175 -84 -207
-102 -246 -95 -201 15 88 63 472 60 475 -2 2 -155 -217 -341 -486 -185 -270
-338 -491 -340 -491 -5 0 34 83 289 619 114 238 206 435 204 436 -2 2 -97 -68
-212 -156 -114 -89 -209 -159 -210 -157 -2 2 84 116 189 253 106 138 192 252
190 253 -3 4 -899 -420 -1068 -504 -37 -19 -67 -32 -67 -30 0 2 205 145 455
317 250 172 454 314 452 315 -1 1 -107 -12 -236 -30 -150 -21 -228 -28 -217
-21 9 7 125 70 258 141 133 70 238 129 233 131 -6 1 -313 27 -684 58 -371 30
-676 56 -677 58 -2 2 283 25 634 51 350 26 655 50 676 54 37 7 20 14 -277 127
-174 66 -315 121 -313 122 2 2 166 -24 366 -57 200 -33 365 -59 367 -56 2 2
-223 159 -499 349 -549 377 -564 388 -503 359 22 -11 255 -122 518 -247 263
-125 479 -226 481 -224 2 2 -61 89 -141 192 -80 104 -143 190 -141 191 1 2
104 -75 228 -171 124 -95 233 -178 242 -183 19 -11 25 -25 -311 679 -132 278
-240 506 -238 507 1 1 153 -218 337 -487 184 -268 336 -484 338 -479 2 4 -9
92 -23 195 -14 103 -24 189 -22 191 2 2 48 -104 102 -237 55 -132 102 -242
105 -244 3 -2 28 282 55 630 27 349 51 633 52 631 2 -2 24 -259 48 -572z"/>
<path d="M2115 3196 c-188 -47 -333 -188 -389 -375 -21 -71 -21 -220 0 -292
40 -135 142 -264 260 -326 212 -113 465 -75 635 96 338 338 93 915 -386 910
-38 0 -92 -6 -120 -13z m284 -57 c131 -44 252 -158 302 -286 33 -87 38 -230
10 -321 -24 -81 -85 -176 -144 -228 -58 -51 -165 -100 -248 -115 -287 -51
-569 189 -569 484 0 132 50 250 149 348 137 136 315 178 500 118z"/>
<path d="M1906 2877 c-118 -201 -37 -466 174 -566 48 -23 67 -26 161 -26 101
0 108 1 180 37 40 20 88 51 104 68 l30 31 -30 -11 c-57 -22 -133 -29 -197 -19
-223 36 -412 258 -395 465 2 35 3 64 1 64 -2 0 -14 -19 -28 -43z"/>
</g>
</svg>
