<?xml version="1.0" standalone="no"?>
<!DOCTYPE svg PUBLIC "-//W3C//DTD SVG 20010904//EN"
 "http://www.w3.org/TR/2001/REC-SVG-20010904/DTD/svg10.dtd">
<svg version="1.0" xmlns="http://www.w3.org/2000/svg"
 width="400.000000pt" height="400.000000pt" viewBox="0 0 400.000000 400.000000"
 preserveAspectRatio="xMidYMid meet">
<metadata>
Created by potrace 1.14, written by Peter Selinger 2001-2017
</metadata>
<g transform="translate(0.000000,400.000000) scale(0.100000,-0.100000)"
fill="#000000" stroke="none">
<path d="M0 2000 l0 -2000 2000 0 2000 0 0 2000 0 2000 -2000 0 -2000 0 0
-2000z m2027 870 c3 -8 37 65 76 163 39 99 73 174 75 169 2 -6 -9 -92 -23
-192 -14 -100 -25 -186 -23 -191 2 -6 127 170 278 390 151 219 276 398 278
397 1 -2 -91 -197 -204 -435 -114 -237 -205 -433 -203 -435 2 -2 67 45 144
105 77 60 149 115 159 121 23 13 35 29 -127 -181 -59 -78 -106 -141 -104 -141
2 0 196 92 432 205 236 113 429 204 431 202 1 -1 -178 -125 -397 -276 -220
-151 -398 -275 -397 -277 2 -1 127 22 278 52 150 29 275 52 277 50 1 -1 -108
-46 -243 -100 -135 -54 -243 -101 -240 -103 3 -3 258 -25 566 -48 309 -24 563
-45 565 -47 2 -2 -238 -23 -533 -47 -295 -24 -563 -46 -596 -50 l-58 -6 216
-104 c119 -57 215 -105 214 -107 -2 -1 -102 15 -222 37 -120 22 -220 38 -221
37 -2 -2 174 -115 391 -252 216 -137 392 -251 391 -253 -2 -1 -199 83 -437
187 -239 104 -435 188 -437 186 -3 -2 43 -63 215 -285 36 -47 59 -81 51 -76
-8 5 -72 53 -142 108 -71 54 -130 97 -131 95 -2 -1 80 -176 181 -387 101 -211
182 -385 180 -387 -1 -1 -130 183 -286 409 -213 310 -282 403 -278 377 4 -19
18 -120 32 -225 14 -104 28 -201 31 -215 9 -48 -14 2 -88 185 -56 137 -74 173
-76 150 -1 -16 -20 -347 -42 -734 -22 -388 -42 -707 -45 -709 -3 -3 -5 15 -5
39 0 62 -78 1411 -82 1414 -2 2 -32 -69 -68 -157 -36 -89 -66 -155 -68 -147
-1 8 9 93 22 189 13 96 23 176 21 178 -1 2 -121 -170 -266 -381 -145 -212
-265 -384 -267 -382 -1 1 85 186 193 410 107 225 194 410 192 411 -1 2 -76
-53 -165 -121 -89 -68 -162 -121 -161 -117 0 4 67 93 148 197 82 105 147 191
146 193 -3 3 -768 -358 -857 -404 -16 -8 -28 -13 -28 -11 0 2 160 113 355 247
195 134 353 245 352 246 -1 1 -76 -9 -167 -22 -91 -13 -171 -23 -179 -21 -8 1
75 49 184 107 l199 105 -55 6 c-30 4 -269 24 -531 45 -262 21 -475 40 -473 42
2 2 234 21 517 43 282 21 516 40 520 42 4 1 -100 42 -230 91 -130 49 -241 92
-245 96 -5 4 27 1 70 -6 312 -54 493 -80 481 -69 -7 7 -185 131 -396 275 -210
145 -381 264 -379 266 2 2 178 -80 391 -182 214 -102 390 -184 391 -182 2 2
-46 68 -107 146 -60 79 -109 145 -107 146 2 2 85 -59 184 -135 98 -76 181
-137 182 -135 3 3 -386 827 -429 911 -23 43 12 -6 263 -370 142 -208 259 -369
259 -358 0 19 -25 210 -35 268 -8 49 9 14 87 -179 l73 -179 7 44 c4 24 21 224
38 444 16 220 33 420 37 445 4 31 17 -91 41 -395 19 -242 36 -447 39 -455z"/>
<path d="M1855 2696 c-120 -29 -222 -115 -278 -234 -30 -62 -32 -75 -32 -172
0 -97 2 -110 32 -173 152 -321 604 -321 756 0 30 63 32 76 32 173 0 97 -2 110
-32 172 -88 187 -283 282 -478 234z m219 -42 c66 -21 114 -53 169 -113 169
-188 103 -490 -132 -600 -49 -23 -69 -26 -156 -26 -87 0 -107 3 -156 26 -240
113 -301 416 -124 607 106 115 247 152 399 106z"/>
<path d="M1683 2428 c-23 -46 -27 -65 -27 -138 0 -73 4 -92 26 -136 57 -110
152 -168 274 -168 59 0 81 5 136 32 35 17 73 40 82 51 18 20 18 20 -15 11 -19
-6 -63 -10 -99 -10 -175 0 -344 168 -345 342 0 38 -1 68 -2 68 -2 0 -15 -24
-30 -52z"/>
</g>
</svg>
