<?xml version="1.0" encoding="utf-8"?>
<!-- Generator: Adobe Illustrator 24.0.2, SVG Export Plug-In . SVG Version: 6.00 Build 0)  -->
<svg version="1.1" id="Layer_1" xmlns="http://www.w3.org/2000/svg" xmlns:xlink="http://www.w3.org/1999/xlink" x="0px" y="0px"
	 viewBox="0 0 594.06 275.15" enable-background="new 0 0 594.06 275.15" xml:space="preserve">
<g opacity="0.37">
	<g>
		<g>
			<g>
				<defs>
					<rect id="SVGID_1_" x="-384.79" y="-471.8" width="1366" height="1366"/>
				</defs>
				<clipPath id="SVGID_2_">
					<use xlink:href="#SVGID_1_"  overflow="visible"/>
				</clipPath>
				<path clip-path="url(#SVGID_2_)" fill="#E6D1AB" d="M271.58,225.24c0,0-19.2-1.9-20.46-1.96c-2.08-5.36-6.23-5.14-8.53-0.48
					c-2.45,0.47-4.55-0.21-6.7-1.49c-1.9-1.13-4.08-1.97-6.24-2.44c-9.97-2.18-20.07-2.82-30.25-1.95
					c-10.54,0.91-21.07,1.96-31.62,2.75c-5.03,0.38-10.1,0.28-14.84,0.4c-5.25-6.36-9.7-5.81-15.08-2.5
					c-8.28-0.82-19.5-5.96-26.18-12.33c-3.72-3.54-3.94-3.45-8.5-1.18c-0.2,0.1-0.37,0.26-0.57,0.36
					c-15.22,7.82-31.44,11.79-48.51,11.68c-8.89-0.06-36.13,1.48-36.13,1.48l-0.13,0c0,0,27.1,3.46,35.97,3.95
					c17.04,0.94,32.99,5.89,47.7,14.64c0.19,0.12,0.36,0.28,0.55,0.39c4.42,2.55,4.63,2.65,8.56-0.65
					c7.05-5.94,18.57-10.39,26.88-10.69c5.17,3.64,9.58,4.46,15.21-1.56c4.72,0.4,9.78,0.63,14.78,1.31
					c10.48,1.43,20.93,3.13,31.4,4.68c10.11,1.5,20.23,1.48,30.32-0.09c2.19-0.34,4.42-1.04,6.38-2.05c2.22-1.15,4.36-1.7,6.78-1.08
					c2.01,4.8,6.13,5.27,8.54,0.05C252.18,226.49,271.58,225.24,271.58,225.24 M112.88,220.68l-0.1,0.07l0.18,0.01l3.68,3.28
					c0,0-6.75,6.13-10.29,8.27c-8-3.7-25.61-11.57-28.2-12.73c2.3-0.86,20.74-7.78,29.05-11.02c3.4,2.36,9.76,8.89,9.76,8.89
					l-3.88,3.05l-0.43-0.01L112.88,220.68z"/>
			</g>
		</g>
		<g>
			<g>
				<defs>
					<rect id="SVGID_3_" x="-384.79" y="-471.8" width="1366" height="1366"/>
				</defs>
				<clipPath id="SVGID_4_">
					<use xlink:href="#SVGID_3_"  overflow="visible"/>
				</clipPath>
				<path clip-path="url(#SVGID_4_)" fill="#E6D1AB" d="M333.5,226.47c2.41,5.22,6.53,4.75,8.54-0.05c2.42-0.62,4.55-0.07,6.78,1.08
					c1.96,1.01,4.19,1.71,6.38,2.05c10.09,1.56,20.21,1.59,30.32,0.09c10.47-1.56,20.91-3.25,31.4-4.68c5-0.68,10.06-0.9,14.78-1.31
					c5.63,6.03,10.04,5.2,15.21,1.56c8.31,0.31,19.83,4.75,26.89,10.7c3.93,3.31,4.15,3.2,8.56,0.65c0.2-0.11,0.36-0.28,0.55-0.4
					c14.71-8.74,30.66-13.7,47.7-14.64c8.88-0.49,35.97-3.95,35.97-3.95l-0.13,0c0,0-27.24-1.53-36.13-1.47
					c-17.07,0.11-33.29-3.86-48.51-11.68c-0.2-0.1-0.37-0.26-0.57-0.36c-4.56-2.27-4.79-2.37-8.51,1.18
					c-6.67,6.36-17.89,11.51-26.18,12.32c-5.38-3.31-9.84-3.87-15.08,2.5c-4.74-0.11-9.81-0.02-14.84-0.4
					c-10.55-0.79-21.08-1.84-31.62-2.75c-10.18-0.88-20.28-0.23-30.26,1.95c-2.16,0.47-4.34,1.31-6.24,2.44
					c-2.15,1.28-4.25,1.96-6.7,1.49c-2.3-4.66-6.44-4.89-8.53,0.48c-1.26,0.06-20.46,1.96-20.46,1.96S332.23,226.49,333.5,226.47
					 M471.74,220.5l-0.43,0.01l-3.88-3.05c0,0,6.36-6.53,9.76-8.89c8.31,3.24,26.76,10.16,29.05,11.02
					c-2.59,1.16-20.2,9.04-28.2,12.73c-3.54-2.15-10.29-8.27-10.29-8.27l3.68-3.28l0.18-0.01l-0.09-0.07L471.74,220.5z"/>
			</g>
		</g>
		<g>
			<g>
				<defs>
					<rect id="SVGID_5_" x="-384.79" y="-471.8" width="1366" height="1366"/>
				</defs>
				<clipPath id="SVGID_6_">
					<use xlink:href="#SVGID_5_"  overflow="visible"/>
				</clipPath>
			</g>
		</g>
		<g>
			<g>
				<defs>
					<rect id="SVGID_7_" x="-384.79" y="-471.8" width="1366" height="1366"/>
				</defs>
				<clipPath id="SVGID_8_">
					<use xlink:href="#SVGID_7_"  overflow="visible"/>
				</clipPath>
			</g>
		</g>
		<g>
			<g>
				<defs>
					<rect id="SVGID_9_" x="-384.79" y="-471.8" width="1366" height="1366"/>
				</defs>
				<clipPath id="SVGID_10_">
					<use xlink:href="#SVGID_9_"  overflow="visible"/>
				</clipPath>
			</g>
		</g>
		<g>
			<g>
				<defs>
					<rect id="SVGID_11_" x="-384.79" y="-471.8" width="1366" height="1366"/>
				</defs>
				<clipPath id="SVGID_12_">
					<use xlink:href="#SVGID_11_"  overflow="visible"/>
				</clipPath>
			</g>
		</g>
		<g>
			<g>
				<defs>
					<rect id="SVGID_13_" x="-384.79" y="-471.8" width="1366" height="1366"/>
				</defs>
				<clipPath id="SVGID_14_">
					<use xlink:href="#SVGID_13_"  overflow="visible"/>
				</clipPath>
			</g>
		</g>
		<g>
			<g>
				<defs>
					<rect id="SVGID_15_" x="-384.79" y="-471.8" width="1366" height="1366"/>
				</defs>
				<clipPath id="SVGID_16_">
					<use xlink:href="#SVGID_15_"  overflow="visible"/>
				</clipPath>
			</g>
		</g>
		<g>
			<g>
				<defs>
					<rect id="SVGID_17_" x="-384.79" y="-471.8" width="1366" height="1366"/>
				</defs>
				<clipPath id="SVGID_18_">
					<use xlink:href="#SVGID_17_"  overflow="visible"/>
				</clipPath>
			</g>
		</g>
		<g>
			<g>
				<defs>
					<rect id="SVGID_19_" x="-384.79" y="-471.8" width="1366" height="1366"/>
				</defs>
				<clipPath id="SVGID_20_">
					<use xlink:href="#SVGID_19_"  overflow="visible"/>
				</clipPath>
			</g>
		</g>
		<g>
			<g>
				<defs>
					<rect id="SVGID_21_" x="-384.79" y="-471.8" width="1366" height="1366"/>
				</defs>
				<clipPath id="SVGID_22_">
					<use xlink:href="#SVGID_21_"  overflow="visible"/>
				</clipPath>
			</g>
		</g>
		<g>
			<g>
				<defs>
					<rect id="SVGID_23_" x="-384.79" y="-471.8" width="1366" height="1366"/>
				</defs>
				<clipPath id="SVGID_24_">
					<use xlink:href="#SVGID_23_"  overflow="visible"/>
				</clipPath>
			</g>
		</g>
		<g>
			<g>
				<defs>
					<rect id="SVGID_25_" x="-384.79" y="-471.8" width="1366" height="1366"/>
				</defs>
				<clipPath id="SVGID_26_">
					<use xlink:href="#SVGID_25_"  overflow="visible"/>
				</clipPath>
			</g>
		</g>
		<g>
			<g>
				<defs>
					<rect id="SVGID_27_" x="-384.79" y="-471.8" width="1366" height="1366"/>
				</defs>
				<clipPath id="SVGID_28_">
					<use xlink:href="#SVGID_27_"  overflow="visible"/>
				</clipPath>
			</g>
		</g>
		<g>
			<g>
				<defs>
					<rect id="SVGID_29_" x="-384.79" y="-471.8" width="1366" height="1366"/>
				</defs>
				<clipPath id="SVGID_30_">
					<use xlink:href="#SVGID_29_"  overflow="visible"/>
				</clipPath>
			</g>
		</g>
		<g>
			<g>
				<defs>
					<rect id="SVGID_31_" x="-384.79" y="-471.8" width="1366" height="1366"/>
				</defs>
				<clipPath id="SVGID_32_">
					<use xlink:href="#SVGID_31_"  overflow="visible"/>
				</clipPath>
			</g>
		</g>
		<g>
			<g>
				<defs>
					<rect id="SVGID_33_" x="-384.79" y="-471.8" width="1366" height="1366"/>
				</defs>
				<clipPath id="SVGID_34_">
					<use xlink:href="#SVGID_33_"  overflow="visible"/>
				</clipPath>
			</g>
		</g>
		<g>
			<g>
				<defs>
					<rect id="SVGID_35_" x="-384.79" y="-471.8" width="1366" height="1366"/>
				</defs>
				<clipPath id="SVGID_36_">
					<use xlink:href="#SVGID_35_"  overflow="visible"/>
				</clipPath>
			</g>
		</g>
		<g>
			<g>
				<defs>
					<rect id="SVGID_37_" x="-384.79" y="-471.8" width="1366" height="1366"/>
				</defs>
				<clipPath id="SVGID_38_">
					<use xlink:href="#SVGID_37_"  overflow="visible"/>
				</clipPath>
			</g>
		</g>
		<g>
			<g>
				<defs>
					<rect id="SVGID_39_" x="-384.79" y="-471.8" width="1366" height="1366"/>
				</defs>
				<clipPath id="SVGID_40_">
					<use xlink:href="#SVGID_39_"  overflow="visible"/>
				</clipPath>
			</g>
		</g>
		<g>
			<g>
				<defs>
					<rect id="SVGID_41_" x="-384.79" y="-471.8" width="1366" height="1366"/>
				</defs>
				<clipPath id="SVGID_42_">
					<use xlink:href="#SVGID_41_"  overflow="visible"/>
				</clipPath>
			</g>
		</g>
		<g>
			<g>
				<defs>
					<rect id="SVGID_43_" x="-384.79" y="-471.8" width="1366" height="1366"/>
				</defs>
				<clipPath id="SVGID_44_">
					<use xlink:href="#SVGID_43_"  overflow="visible"/>
				</clipPath>
			</g>
		</g>
		<g>
			<g>
				<defs>
					<rect id="SVGID_45_" x="-384.79" y="-471.8" width="1366" height="1366"/>
				</defs>
				<clipPath id="SVGID_46_">
					<use xlink:href="#SVGID_45_"  overflow="visible"/>
				</clipPath>
			</g>
		</g>
		<g>
			<g>
				<defs>
					<rect id="SVGID_47_" x="-384.79" y="-471.8" width="1366" height="1366"/>
				</defs>
				<clipPath id="SVGID_48_">
					<use xlink:href="#SVGID_47_"  overflow="visible"/>
				</clipPath>
			</g>
		</g>
		<g>
			<g>
				<defs>
					<rect id="SVGID_49_" x="-384.79" y="-471.8" width="1366" height="1366"/>
				</defs>
				<clipPath id="SVGID_50_">
					<use xlink:href="#SVGID_49_"  overflow="visible"/>
				</clipPath>
			</g>
		</g>
		<g>
			<g>
				<defs>
					<rect id="SVGID_51_" x="-384.79" y="-471.8" width="1366" height="1366"/>
				</defs>
				<clipPath id="SVGID_52_">
					<use xlink:href="#SVGID_51_"  overflow="visible"/>
				</clipPath>
			</g>
		</g>
		<g>
			<g>
				<defs>
					<rect id="SVGID_53_" x="-384.79" y="-471.8" width="1366" height="1366"/>
				</defs>
				<clipPath id="SVGID_54_">
					<use xlink:href="#SVGID_53_"  overflow="visible"/>
				</clipPath>
			</g>
		</g>
		<g>
			<g>
				<defs>
					<rect id="SVGID_55_" x="-384.79" y="-471.8" width="1366" height="1366"/>
				</defs>
				<clipPath id="SVGID_56_">
					<use xlink:href="#SVGID_55_"  overflow="visible"/>
				</clipPath>
				<path clip-path="url(#SVGID_56_)" fill="#E6D1AB" d="M280.09,220.94c2.27-4.42,6.86-7.46,12.18-7.46
					c5.31,0,9.91,3.03,12.18,7.46l131.11-38.64l-120.44,29.09l105.52-64.47L309.7,207.35l89.98-94.56l-93.79,89.25L367.2,89.48
					l-65.46,107.15L328.1,86.67L294.76,199.1l-2.79-69.64l-2.72,67.85L256.43,86.67l26.36,109.96L217.33,89.48l61.32,112.56
					l-93.79-89.25l89.98,94.56L163.9,146.92l105.52,64.47L148.98,182.3L280.09,220.94z"/>
			</g>
		</g>
		<g>
			<g>
				<defs>
					<rect id="SVGID_57_" x="-384.79" y="-471.8" width="1366" height="1366"/>
				</defs>
				<clipPath id="SVGID_58_">
					<use xlink:href="#SVGID_57_"  overflow="visible"/>
				</clipPath>
				<path clip-path="url(#SVGID_58_)" fill="#E6D1AB" d="M295.96,227.18c0,2.04-1.65,3.69-3.69,3.69s-3.69-1.65-3.69-3.69
					s1.65-3.69,3.69-3.69S295.96,225.14,295.96,227.18"/>
			</g>
		</g>
	</g>
	<g>
		<g>
			<g>
				<defs>
					<polygon id="SVGID_59_" points="26.64,-38.85 26.64,173.82 293.86,227.18 527.74,178.68 530.51,-38.85 					"/>
				</defs>
				<clipPath id="SVGID_60_">
					<use xlink:href="#SVGID_59_"  overflow="visible"/>
				</clipPath>
				<path clip-path="url(#SVGID_60_)" fill="#E6D1AB" d="M334.38,74.18c68.89,17.8,119.19,80.31,119.19,154.73
					c0,88.23-71.77,160-160,160c-88.23,0-160-71.77-160-160c0-71.7,47.57-132.75,112.7-153.06c0.3,0.06,15.3-6.94,15.61-6.83
					c-74.76,14.79-131.3,80.85-131.3,159.88c0,89.88,73.12,163,163,163c89.88,0,163-73.12,163-163
					c0-80.13-58.61-147.03-134.91-160.58L334.38,74.18z"/>
			</g>
		</g>
		<g>
			<g>
				<defs>
					<polygon id="SVGID_61_" points="26.64,-38.85 26.64,173.82 293.86,227.18 527.74,178.68 530.51,-38.85 					"/>
				</defs>
				<clipPath id="SVGID_62_">
					<use xlink:href="#SVGID_61_"  overflow="visible"/>
				</clipPath>
				<path clip-path="url(#SVGID_62_)" fill="#E6D1AB" d="M292.7,414.53c-1.14,0-2.14-0.92-2.14-2.06s0.84-2.06,1.98-2.06l1.01,0
					h0.01c1.13,0,2.05,0.91,2.06,2.04c0.01,1.14-0.91,2.06-2.05,2.07L292.7,414.53z M280.26,414.1c-0.05,0-0.1,0-0.15-0.01
					l-1.02-0.07c-1.13-0.08-1.99-1.06-1.91-2.2c0.08-1.14,1.08-2,2.2-1.91l1.02,0.07c1.14,0.08,1.99,1.06,1.91,2.2
					C282.23,413.28,281.33,414.1,280.26,414.1 M305.85,414.06c-1.07,0-1.97-0.82-2.05-1.9c-0.09-1.14,0.76-2.12,1.89-2.21l1.02-0.08
					c1.15-0.09,2.12,0.76,2.21,1.89c0.09,1.14-0.76,2.12-1.89,2.21l-1.02,0.07C305.96,414.06,305.9,414.06,305.85,414.06
					 M267.02,412.72c-0.1,0-0.2-0.01-0.29-0.02l-1.02-0.15c-1.12-0.17-1.9-1.21-1.73-2.34c0.17-1.12,1.2-1.9,2.34-1.74l1.01,0.15
					c1.12,0.16,1.91,1.2,1.75,2.33C268.91,411.98,268.03,412.72,267.02,412.72 M319.09,412.64c-1,0-1.88-0.73-2.03-1.75
					c-0.17-1.13,0.61-2.17,1.73-2.34l1.01-0.15c1.12-0.15,2.17,0.61,2.34,1.73c0.17,1.13-0.61,2.17-1.73,2.34l-1.02,0.15
					C319.29,412.63,319.19,412.64,319.09,412.64 M253.91,410.37c-0.15,0-0.29-0.02-0.44-0.05l-1-0.22
					c-1.11-0.24-1.82-1.34-1.58-2.45c0.24-1.11,1.34-1.82,2.45-1.58l1,0.22c1.11,0.24,1.82,1.34,1.58,2.45
					C255.71,409.71,254.85,410.37,253.91,410.37 M332.19,410.26c-0.94,0-1.79-0.65-2.01-1.61c-0.25-1.11,0.45-2.21,1.56-2.46l1-0.22
					c1.11-0.25,2.21,0.45,2.46,1.56c0.25,1.11-0.45,2.21-1.56,2.46l-1,0.22C332.48,410.25,332.33,410.26,332.19,410.26
					 M241.01,407.06c-0.19,0-0.38-0.02-0.58-0.08l-1-0.3c-1.09-0.33-1.7-1.48-1.38-2.56c0.33-1.09,1.46-1.71,2.57-1.38l0.97,0.29
					c1.09,0.32,1.72,1.46,1.4,2.55C242.72,406.47,241.9,407.06,241.01,407.06 M345.08,406.93c-0.89,0-1.7-0.58-1.97-1.47
					c-0.33-1.09,0.29-2.24,1.38-2.56l0.98-0.29c1.08-0.33,2.24,0.29,2.56,1.38c0.33,1.09-0.29,2.23-1.38,2.56l-0.98,0.3
					C345.48,406.9,345.28,406.93,345.08,406.93 M228.37,402.8c-0.24,0-0.49-0.04-0.73-0.13l-0.97-0.37
					c-1.06-0.41-1.59-1.6-1.18-2.66c0.41-1.06,1.6-1.59,2.66-1.18l0.95,0.36c1.06,0.4,1.6,1.59,1.2,2.65
					C229.99,402.29,229.2,402.8,228.37,402.8 M357.69,402.66c-0.83,0-1.61-0.5-1.92-1.32c-0.41-1.06,0.12-2.25,1.19-2.66l0.95-0.37
					c1.06-0.41,2.25,0.12,2.66,1.18s-0.12,2.25-1.18,2.66l-0.96,0.37C358.19,402.61,357.94,402.66,357.69,402.66 M216.08,397.63
					c-0.29,0-0.59-0.06-0.87-0.19l-0.93-0.43c-1.03-0.48-1.47-1.71-0.99-2.74c0.48-1.03,1.7-1.47,2.74-0.99l0.93,0.44
					c1.03,0.48,1.47,1.71,0.99,2.74C217.6,397.19,216.86,397.63,216.08,397.63 M369.94,397.47c-0.77,0-1.52-0.44-1.87-1.19
					c-0.48-1.03-0.04-2.26,0.99-2.74l0.92-0.43c1.03-0.48,2.25-0.04,2.74,0.99c0.48,1.03,0.04,2.26-0.99,2.74l-0.93,0.44
					C370.53,397.41,370.23,397.47,369.94,397.47 M204.21,391.57c-0.34,0-0.68-0.08-1-0.26l-0.91-0.51
					c-0.99-0.56-1.34-1.82-0.78-2.81s1.82-1.33,2.81-0.77l0.88,0.49c0.99,0.55,1.35,1.81,0.8,2.8
					C205.63,391.19,204.93,391.57,204.21,391.57 M381.78,391.41c-0.72,0-1.42-0.38-1.8-1.05c-0.56-0.99-0.2-2.25,0.79-2.8l0.88-0.5
					c0.98-0.57,2.24-0.22,2.81,0.77c0.57,0.99,0.22,2.24-0.77,2.81l-0.9,0.51C382.46,391.33,382.12,391.41,381.78,391.41
					 M192.81,384.66c-0.38,0-0.78-0.11-1.13-0.34l-0.87-0.57c-0.95-0.63-1.2-1.91-0.57-2.85c0.63-0.95,1.9-1.2,2.85-0.57l0.84,0.55
					c0.95,0.62,1.22,1.9,0.6,2.85C194.14,384.33,193.48,384.66,192.81,384.66 M393.14,384.49c-0.67,0-1.33-0.33-1.73-0.93
					c-0.62-0.95-0.36-2.23,0.6-2.85l0.84-0.55c0.95-0.63,2.23-0.38,2.86,0.57c0.63,0.95,0.38,2.23-0.57,2.85l-0.86,0.58
					C393.92,384.38,393.53,384.49,393.14,384.49 M181.95,376.95c-0.43,0-0.87-0.14-1.25-0.42l-0.83-0.64
					c-0.9-0.7-1.06-1.99-0.36-2.89c0.7-0.89,1.99-1.06,2.89-0.36l0.8,0.61c0.9,0.69,1.08,1.98,0.39,2.89
					C183.19,376.67,182.57,376.95,181.95,376.95 M403.98,376.76c-0.61,0-1.22-0.27-1.63-0.8c-0.7-0.9-0.53-2.19,0.36-2.89l0.81-0.63
					c0.9-0.7,2.19-0.53,2.89,0.36c0.7,0.9,0.54,2.19-0.36,2.89l-0.81,0.63C404.86,376.62,404.42,376.76,403.98,376.76
					 M171.68,368.46c-0.49,0-0.98-0.17-1.37-0.52l-0.77-0.7c-0.84-0.76-0.91-2.06-0.15-2.91c0.76-0.84,2.06-0.91,2.91-0.14
					l0.75,0.67c0.85,0.76,0.92,2.06,0.17,2.91C172.82,368.23,172.25,368.46,171.68,368.46 M414.22,368.26
					c-0.57,0-1.13-0.23-1.54-0.69c-0.76-0.85-0.68-2.15,0.17-2.91l0.75-0.67c0.84-0.76,2.15-0.7,2.91,0.14
					c0.77,0.84,0.7,2.15-0.14,2.91l-0.77,0.7C415.2,368.09,414.71,368.26,414.22,368.26 M162.06,359.26c-0.54,0-1.08-0.21-1.48-0.63
					l-0.71-0.73c-0.79-0.82-0.77-2.12,0.05-2.91c0.82-0.79,2.12-0.77,2.91,0.05l0.71,0.73c0.79,0.82,0.77,2.12-0.05,2.91
					C163.09,359.07,162.57,359.26,162.06,359.26 M423.83,359.04c-0.52,0-1.03-0.19-1.43-0.58c-0.82-0.79-0.84-2.09-0.05-2.91
					l0.7-0.73c0.79-0.82,2.09-0.85,2.91-0.07c0.82,0.79,0.86,2.09,0.07,2.91l-0.72,0.75C424.9,358.83,424.36,359.04,423.83,359.04
					 M153.13,349.38c-0.59,0-1.17-0.25-1.58-0.73l-0.67-0.8c-0.72-0.88-0.6-2.17,0.28-2.9c0.88-0.73,2.18-0.6,2.9,0.28l0.65,0.77
					c0.73,0.87,0.62,2.17-0.26,2.9C154.07,349.22,153.6,349.38,153.13,349.38 M432.73,349.14c-0.47,0-0.94-0.15-1.32-0.48
					c-0.87-0.73-0.98-2.03-0.26-2.9l0.65-0.77c0.72-0.88,2.02-1,2.9-0.28c0.88,0.73,1,2.02,0.28,2.9l-0.67,0.8
					C433.9,348.89,433.32,349.14,432.73,349.14 M144.95,338.89c-0.64,0-1.27-0.3-1.67-0.85l-0.6-0.84
					c-0.66-0.92-0.45-2.21,0.47-2.87s2.21-0.45,2.87,0.47l0.59,0.82c0.66,0.92,0.46,2.21-0.46,2.88
					C145.78,338.76,145.36,338.89,144.95,338.89 M440.9,338.62c-0.42,0-0.84-0.12-1.2-0.39c-0.92-0.66-1.14-1.95-0.47-2.87
					l0.59-0.83c0.66-0.93,1.94-1.14,2.87-0.48c0.93,0.66,1.14,1.94,0.48,2.87l-0.6,0.84C442.17,338.32,441.54,338.62,440.9,338.62
					 M137.55,327.83c-0.69,0-1.36-0.35-1.75-0.98l-0.54-0.89c-0.59-0.97-0.28-2.24,0.69-2.83c0.97-0.59,2.24-0.28,2.83,0.69
					l0.53,0.86c0.6,0.97,0.3,2.24-0.67,2.83C138.29,327.73,137.92,327.83,137.55,327.83 M448.29,327.53c-0.37,0-0.74-0.1-1.07-0.31
					c-0.97-0.59-1.27-1.86-0.68-2.83l0.53-0.86c0.59-0.98,1.85-1.28,2.82-0.69c0.98,0.59,1.28,1.86,0.69,2.83l-0.54,0.88
					C449.65,327.18,448.98,327.53,448.29,327.53 M130.98,316.26c-0.74,0-1.46-0.41-1.83-1.11l-0.47-0.92
					c-0.52-1.01-0.12-2.25,0.9-2.77c1.02-0.52,2.25-0.11,2.77,0.9l0.46,0.89c0.52,1.01,0.13,2.25-0.88,2.77
					C131.62,316.18,131.3,316.26,130.98,316.26 M454.85,315.93c-0.32,0-0.64-0.07-0.94-0.23c-1.01-0.52-1.41-1.77-0.89-2.77
					l0.46-0.9c0.51-1.01,1.75-1.42,2.77-0.9c1.01,0.51,1.42,1.75,0.9,2.77l-0.48,0.93C456.32,315.52,455.59,315.93,454.85,315.93
					 M125.28,304.24c-0.8,0-1.56-0.47-1.89-1.25l-0.41-0.95c-0.44-1.05,0.05-2.26,1.1-2.7c1.05-0.44,2.25,0.05,2.7,1.1l0.4,0.93
					c0.45,1.05-0.03,2.26-1.08,2.7C125.82,304.19,125.55,304.24,125.28,304.24 M460.54,303.88c-0.27,0-0.55-0.05-0.81-0.17
					c-1.05-0.45-1.53-1.66-1.08-2.7l0.39-0.93c0.44-1.05,1.65-1.53,2.7-1.1c1.05,0.44,1.54,1.65,1.1,2.7l-0.41,0.96
					C462.1,303.41,461.34,303.88,460.54,303.88 M120.47,291.83c-0.86,0-1.66-0.54-1.95-1.39l-0.33-0.97
					c-0.37-1.07,0.21-2.24,1.28-2.61c1.07-0.36,2.25,0.2,2.61,1.28l0.33,0.97c0.37,1.08-0.21,2.24-1.28,2.61
					C120.91,291.79,120.69,291.83,120.47,291.83 M465.34,291.44c-0.22,0-0.44-0.04-0.67-0.11c-1.08-0.37-1.65-1.54-1.28-2.61
					l0.33-0.97c0.37-1.08,1.54-1.65,2.61-1.29c1.08,0.36,1.65,1.54,1.29,2.61l-0.33,0.98C467,290.9,466.2,291.44,465.34,291.44
					 M116.58,279.09c-0.91,0-1.74-0.6-1.99-1.52l-0.26-1.01c-0.29-1.1,0.38-2.23,1.48-2.51c1.1-0.29,2.22,0.38,2.51,1.48l0.26,0.98
					c0.3,1.1-0.36,2.23-1.46,2.52C116.93,279.07,116.75,279.09,116.58,279.09 M469.21,278.67c-0.17,0-0.35-0.02-0.52-0.07
					c-1.1-0.29-1.76-1.41-1.48-2.51l0.26-0.99c0.29-1.1,1.42-1.76,2.51-1.48c1.1,0.29,1.76,1.41,1.47,2.51l-0.26,0.99
					C470.96,278.06,470.12,278.67,469.21,278.67 M113.64,266.1c-0.97,0-1.84-0.69-2.02-1.68l-0.19-1.01
					c-0.21-1.12,0.53-2.19,1.65-2.4c1.12-0.21,2.19,0.54,2.4,1.65l0.19,1.01c0.21,1.12-0.53,2.19-1.65,2.4
					C113.89,266.09,113.76,266.1,113.64,266.1 M472.13,265.67c-0.12,0-0.24-0.01-0.36-0.03c-1.12-0.2-1.86-1.27-1.66-2.39l0.18-1.01
					c0.2-1.12,1.27-1.86,2.39-1.66c1.12,0.2,1.86,1.27,1.66,2.39l-0.18,1.01C473.98,264.98,473.1,265.67,472.13,265.67
					 M111.66,252.93c-1.04,0-1.93-0.77-2.04-1.83l-0.11-1.03c-0.12-1.13,0.7-2.15,1.83-2.27c1.14-0.12,2.15,0.7,2.26,1.83l0.11,1.01
					c0.13,1.13-0.69,2.15-1.82,2.27C111.81,252.93,111.73,252.93,111.66,252.93 M474.08,252.5c-0.07,0-0.15,0-0.22-0.01
					c-1.13-0.12-1.95-1.13-1.83-2.26l0.11-1.02c0.12-1.13,1.14-1.96,2.27-1.83c1.13,0.12,1.95,1.13,1.83,2.26l-0.11,1.02
					C476.01,251.72,475.12,252.5,474.08,252.5 M475.06,239.23c-0.02,0-0.05,0-0.07,0c-1.14-0.04-2.02-0.99-1.98-2.13l0.03-1.01
					c0.04-1.12,0.95-2,2.06-2h0.06c1.14,0.03,2.03,0.98,2,2.12l-0.04,1.04C477.08,238.35,476.17,239.23,475.06,239.23
					 M108.58,237.66l2.06-0.06l-2.06-0.05l-0.03-0.9c-0.04-1.14,0.85-2.09,1.98-2.13c1.11-0.07,2.09,0.85,2.13,1.98l0.03,0.84
					l-2.05,0.26L108.58,237.66z M110.57,226.34h-0.06c-1.14-0.03-2.03-0.98-2-2.12l0.04-1.04c0.04-1.14,1.08-2.06,2.13-1.98
					c1.14,0.04,2.03,0.99,1.98,2.13l-0.03,1.01C112.6,225.46,111.68,226.34,110.57,226.34 M475.08,225.91
					c-1.11,0-2.02-0.88-2.05-1.99l-0.05-1.38c-0.05-1.14,0.82-2.1,1.96-2.15c1.1-0.07,2.1,0.82,2.15,1.96l0.05,1.43
					c0.04,1.14-0.85,2.09-1.98,2.13C475.13,225.91,475.1,225.91,475.08,225.91 M111.47,213.05c-0.07,0-0.15,0-0.22-0.01
					c-1.13-0.12-1.95-1.13-1.83-2.26l0.11-1.02c0.12-1.13,1.15-1.95,2.26-1.83c1.13,0.12,1.95,1.13,1.83,2.26l-0.11,1.02
					C113.4,212.27,112.51,213.05,111.47,213.05 M474.1,212.24c-1.03,0-1.92-0.77-2.04-1.83l-0.11-1.02
					c-0.12-1.13,0.69-2.15,1.82-2.28c1.12-0.12,2.15,0.69,2.28,1.82l0.11,1.02c0.13,1.13-0.69,2.15-1.81,2.28
					C474.26,212.24,474.18,212.24,474.1,212.24 M113.33,199.87c-0.12,0-0.24-0.01-0.37-0.03c-1.12-0.2-1.86-1.27-1.66-2.39
					l0.18-1.02c0.21-1.12,1.28-1.87,2.4-1.65c1.12,0.21,1.86,1.28,1.65,2.4l-0.18,1C115.18,199.17,114.31,199.87,113.33,199.87
					 M472.18,199.07c-0.97,0-1.84-0.69-2.02-1.68l-0.19-0.99c-0.21-1.12,0.52-2.2,1.64-2.41c1.11-0.21,2.2,0.52,2.41,1.63l0.19,1.02
					c0.21,1.12-0.53,2.19-1.65,2.4C472.43,199.06,472.3,199.07,472.18,199.07 M116.16,186.85c-0.17,0-0.34-0.02-0.51-0.07
					c-1.1-0.28-1.77-1.4-1.49-2.5l0.26-1.01c0.29-1.1,1.42-1.75,2.51-1.47c1.1,0.29,1.76,1.41,1.47,2.51l-0.25,0.99
					C117.92,186.24,117.08,186.85,116.16,186.85 M469.3,186.07c-0.91,0-1.75-0.61-1.99-1.54l-0.26-0.98
					c-0.3-1.1,0.36-2.23,1.46-2.52c1.08-0.29,2.23,0.36,2.52,1.46l0.26,1.01c0.29,1.1-0.37,2.22-1.47,2.51
					C469.65,186.04,469.47,186.07,469.3,186.07 M119.94,174.06c-0.21,0-0.43-0.03-0.65-0.11c-1.08-0.36-1.66-1.52-1.3-2.6l0.33-0.99
					c0.37-1.08,1.54-1.64,2.61-1.28c1.07,0.37,1.65,1.54,1.28,2.61l-0.32,0.96C121.6,173.52,120.8,174.06,119.94,174.06
					 M465.48,173.31c-0.86,0-1.65-0.54-1.95-1.39l-0.33-0.96c-0.38-1.07,0.19-2.25,1.26-2.62c1.08-0.37,2.25,0.19,2.62,1.26
					l0.34,0.98c0.37,1.08-0.21,2.25-1.28,2.61C465.92,173.28,465.7,173.31,465.48,173.31 M124.65,161.59c-0.27,0-0.54-0.05-0.8-0.16
					c-1.05-0.44-1.54-1.65-1.1-2.7l0.41-0.96c0.45-1.04,1.66-1.52,2.7-1.08c1.05,0.45,1.53,1.66,1.08,2.7l-0.39,0.93
					C126.22,161.12,125.45,161.59,124.65,161.59 M460.73,160.87c-0.8,0-1.56-0.47-1.89-1.25l-0.4-0.94
					c-0.45-1.04,0.03-2.26,1.08-2.7c1.05-0.44,2.25,0.04,2.7,1.08l0.41,0.95c0.45,1.04-0.04,2.26-1.09,2.7
					C461.27,160.82,461,160.87,460.73,160.87 M130.26,149.5c-0.31,0-0.63-0.07-0.93-0.22c-1.01-0.51-1.42-1.75-0.9-2.77l0.47-0.93
					c0.52-1.01,1.76-1.4,2.77-0.88c1.01,0.52,1.4,1.76,0.88,2.77l-0.46,0.9C131.74,149.09,131.01,149.5,130.26,149.5 M455.08,148.83
					c-0.75,0-1.47-0.41-1.83-1.11l-0.47-0.9c-0.52-1.01-0.13-2.25,0.88-2.78c1-0.52,2.25-0.13,2.77,0.88l0.47,0.91
					c0.52,1.01,0.12,2.25-0.89,2.77C455.72,148.76,455.4,148.83,455.08,148.83 M136.74,137.86c-0.36,0-0.73-0.1-1.06-0.3
					c-0.97-0.59-1.29-1.85-0.7-2.83l0.54-0.88c0.59-0.97,1.86-1.28,2.83-0.69c0.97,0.59,1.28,1.85,0.69,2.83l-0.53,0.87
					C138.12,137.5,137.44,137.86,136.74,137.86 M448.57,137.23c-0.7,0-1.38-0.35-1.76-0.99l-0.52-0.86c-0.6-0.97-0.3-2.24,0.67-2.83
					c0.96-0.6,2.23-0.3,2.83,0.67l0.54,0.88c0.59,0.97,0.28,2.24-0.69,2.83C449.3,137.14,448.93,137.23,448.57,137.23
					 M144.06,126.72c-0.41,0-0.82-0.12-1.18-0.38c-0.93-0.66-1.15-1.94-0.5-2.87l0.6-0.85c0.66-0.93,1.95-1.14,2.87-0.47
					c0.92,0.66,1.14,1.95,0.47,2.87l-0.59,0.82C145.34,126.42,144.71,126.72,144.06,126.72 M441.21,126.14
					c-0.64,0-1.27-0.3-1.67-0.86l-0.59-0.82c-0.67-0.92-0.46-2.21,0.46-2.88c0.92-0.67,2.21-0.46,2.88,0.46l0.6,0.84
					c0.66,0.93,0.45,2.21-0.47,2.87C442.05,126.01,441.63,126.14,441.21,126.14 M152.16,116.14c-0.46,0-0.93-0.15-1.31-0.47
					c-0.88-0.72-1-2.02-0.28-2.9l0.66-0.8c0.73-0.87,2.03-0.99,2.9-0.25c0.87,0.73,0.99,2.03,0.26,2.9l-0.65,0.77
					C153.35,115.89,152.76,116.14,152.16,116.14 M433.08,115.6c-0.59,0-1.17-0.25-1.58-0.74l-0.66-0.78
					c-0.73-0.87-0.61-2.17,0.25-2.9c0.88-0.73,2.17-0.61,2.9,0.25l0.66,0.79c0.73,0.87,0.61,2.17-0.25,2.9
					C434.01,115.45,433.55,115.6,433.08,115.6 M161.01,106.19c-0.51,0-1.02-0.19-1.42-0.57c-0.82-0.78-0.86-2.09-0.07-2.91
					l0.72-0.75c0.79-0.82,2.09-0.84,2.91-0.05c0.82,0.79,0.84,2.09,0.05,2.91l-0.7,0.73C162.1,105.97,161.55,106.19,161.01,106.19
					 M424.19,105.69c-0.54,0-1.08-0.21-1.48-0.63l-0.71-0.74c-0.79-0.82-0.77-2.12,0.05-2.91c0.82-0.79,2.12-0.77,2.91,0.05
					l0.71,0.74c0.79,0.82,0.77,2.12-0.05,2.91C425.23,105.5,424.71,105.69,424.19,105.69 M170.55,96.9c-0.56,0-1.12-0.23-1.53-0.68
					c-0.76-0.84-0.7-2.14,0.14-2.91l0.77-0.7c0.85-0.76,2.15-0.68,2.91,0.17c0.76,0.85,0.68,2.15-0.17,2.91l-0.75,0.67
					C171.54,96.72,171.04,96.9,170.55,96.9 M414.61,96.44c-0.49,0-0.98-0.17-1.38-0.53l-0.76-0.68c-0.85-0.76-0.92-2.06-0.17-2.91
					c0.76-0.85,2.06-0.93,2.91-0.17l0.77,0.69c0.85,0.76,0.92,2.06,0.16,2.91C415.74,96.21,415.17,96.44,414.61,96.44 M180.74,88.33
					c-0.62,0-1.22-0.27-1.63-0.8c-0.7-0.9-0.53-2.19,0.36-2.89l0.81-0.63c0.9-0.7,2.19-0.53,2.89,0.36c0.7,0.9,0.54,2.19-0.36,2.89
					L182,87.9C181.62,88.19,181.18,88.33,180.74,88.33 M404.38,87.91c-0.44,0-0.89-0.14-1.26-0.43l-0.8-0.61
					c-0.9-0.69-1.08-1.98-0.39-2.89c0.69-0.9,1.98-1.08,2.89-0.39l0.83,0.64c0.9,0.7,1.06,1.99,0.36,2.89
					C405.6,87.64,404.99,87.91,404.38,87.91 M191.52,80.53c-0.67,0-1.32-0.32-1.71-0.92c-0.63-0.95-0.38-2.22,0.57-2.86l0.85-0.57
					c0.95-0.63,2.23-0.37,2.85,0.57c0.63,0.95,0.38,2.22-0.57,2.86l-0.85,0.57C192.31,80.41,191.92,80.53,191.52,80.53
					 M393.55,80.15c-0.39,0-0.78-0.11-1.13-0.34l-0.85-0.56c-0.95-0.62-1.22-1.9-0.6-2.85c0.62-0.95,1.9-1.22,2.85-0.6l0.86,0.57
					c0.95,0.63,1.21,1.91,0.58,2.85C394.88,79.82,394.22,80.15,393.55,80.15 M202.84,73.54c-0.72,0-1.41-0.37-1.79-1.04
					c-0.57-0.99-0.22-2.24,0.77-2.81l0.91-0.51c0.99-0.55,2.25-0.2,2.8,0.8c0.55,0.99,0.2,2.25-0.8,2.8l-0.87,0.49
					C203.54,73.45,203.19,73.54,202.84,73.54 M382.19,73.19c-0.34,0-0.69-0.08-1.01-0.26l-0.89-0.5c-0.99-0.56-1.35-1.81-0.8-2.8
					c0.56-1,1.81-1.35,2.8-0.8l0.91,0.51c0.99,0.56,1.34,1.82,0.78,2.81C383.6,72.81,382.91,73.19,382.19,73.19 M214.64,67.39
					c-0.77,0-1.51-0.43-1.86-1.17c-0.49-1.03-0.05-2.26,0.97-2.74l0.93-0.44c1.03-0.48,2.25-0.04,2.74,0.99
					c0.48,1.03,0.04,2.25-0.99,2.74l-0.91,0.43C215.24,67.32,214.94,67.39,214.64,67.39 M370.35,67.08c-0.29,0-0.59-0.06-0.87-0.19
					l-0.93-0.43c-1.03-0.48-1.48-1.7-1-2.73c0.48-1.03,1.7-1.48,2.73-1l0.94,0.44c1.03,0.48,1.47,1.71,0.99,2.74
					C371.86,66.64,371.12,67.08,370.35,67.08 M226.85,62.13c-0.83,0-1.6-0.5-1.92-1.32c-0.41-1.06,0.12-2.25,1.18-2.66l0.96-0.37
					c1.07-0.41,2.25,0.12,2.66,1.18c0.41,1.06-0.12,2.25-1.18,2.66l-0.95,0.37C227.34,62.08,227.09,62.13,226.85,62.13
					 M358.09,61.85c-0.24,0-0.48-0.04-0.73-0.13l-0.96-0.36c-1.06-0.4-1.6-1.59-1.2-2.65c0.4-1.07,1.59-1.6,2.65-1.2l0.96,0.37
					c1.06,0.4,1.6,1.59,1.2,2.65C359.7,61.34,358.92,61.85,358.09,61.85 M239.43,57.77c-0.88,0-1.7-0.57-1.97-1.45
					c-0.34-1.08,0.27-2.24,1.36-2.57l0.99-0.3c1.09-0.33,2.24,0.29,2.57,1.38c0.32,1.09-0.29,2.24-1.38,2.56l-0.97,0.29
					C239.83,57.74,239.63,57.77,239.43,57.77 M345.46,57.53c-0.2,0-0.4-0.03-0.6-0.09l-0.97-0.29c-1.09-0.32-1.72-1.46-1.4-2.56
					c0.32-1.09,1.46-1.72,2.56-1.4l1,0.3c1.09,0.33,1.7,1.48,1.38,2.56C347.17,56.96,346.35,57.53,345.46,57.53 M252.3,54.35
					c-0.94,0-1.79-0.65-2-1.6c-0.25-1.11,0.44-2.21,1.55-2.47l1.01-0.23c1.11-0.25,2.21,0.45,2.46,1.56
					c0.25,1.11-0.45,2.21-1.56,2.46l-0.99,0.22C252.6,54.33,252.45,54.35,252.3,54.35 M332.58,54.16c-0.15,0-0.3-0.02-0.45-0.05
					l-0.99-0.22c-1.11-0.24-1.82-1.34-1.58-2.45c0.24-1.11,1.34-1.82,2.45-1.58l1.01,0.22c1.11,0.25,1.81,1.35,1.56,2.46
					C334.38,53.51,333.52,54.16,332.58,54.16"/>
			</g>
		</g>
		<g>
			<g>
				<defs>
					<polygon id="SVGID_63_" points="26.64,-38.85 26.64,173.82 293.86,227.18 527.74,178.68 530.51,-38.85 					"/>
				</defs>
				<clipPath id="SVGID_64_">
					<use xlink:href="#SVGID_63_"  overflow="visible"/>
				</clipPath>
				<path clip-path="url(#SVGID_64_)" fill="#E6D1AB" d="M344.99,63.58l-26.85,2.19c79.71,12.22,140.96,81.26,140.96,164.34
					c0,91.68-74.59,166.27-166.27,166.27c-91.68,0-166.26-74.59-166.26-166.27c0-83.34,61.63-152.55,141.71-164.45l-26.86-2.19
					c-0.09-0.01-0.17-0.03-0.26-0.05c-71.07,22.08-122.83,88.45-122.83,166.69c0,96.22,78.28,174.5,174.5,174.5
					c96.22,0,174.5-78.28,174.5-174.5C467.34,152.06,415.82,85.81,344.99,63.58"/>
			</g>
		</g>
	</g>
	<g>
		<g>
			<g>
				<defs>
					<rect id="SVGID_65_" x="-384.79" y="-471.8" width="1366" height="1366"/>
				</defs>
				<clipPath id="SVGID_66_">
					<use xlink:href="#SVGID_65_"  overflow="visible"/>
				</clipPath>
				<path clip-path="url(#SVGID_66_)" fill="#E6D1AB" d="M306.59,68.4l15.15,2.72l-14.34-6.91l38.69-3.16l-37.52-2.85l16.83-6.76
					l-18.82,3.66l26.23-18.03L304.64,50.5l8.5-11.06l-10.88,8.36l13.74-28.82l-18.27,26.58l1.99-14.06l-5.03,12.48l-2.37-29.99
					l-2.53,32.12l-5.36-13.03l1.44,10.7l-17.04-24.78l14.38,30.16l-12.63-9.71l7.86,10.22l-26.43-12.6l26.59,18.28l-19.1-3.14
					l16.38,6.24l-34.26,2.6l34.61,2.83l-13.29,7.05l12.27-1.71L252.1,85.1l28.8-13.73l-10.19,13.26l11.14-8.56l-12.92,27.1
					l17.4-25.31l-1.76,13.13l4.6-11.19l2.7,47.29l2.72-47.6l5.27,13.07l-2.32-16.4l18.57,27l-12.32-25.85l9.5,7.3l-9.38-12.2
					l29.02,12.67L306.59,68.4z M292.42,74.63c-7.37,0-13.36-5.99-13.36-13.36c0-7.37,5.99-13.36,13.36-13.36
					c7.37,0,13.36,5.99,13.36,13.36C305.78,68.64,299.79,74.63,292.42,74.63"/>
			</g>
		</g>
		<g>
			<g>
				<defs>
					<rect id="SVGID_67_" x="-384.79" y="-471.8" width="1366" height="1366"/>
				</defs>
				<clipPath id="SVGID_68_">
					<use xlink:href="#SVGID_67_"  overflow="visible"/>
				</clipPath>
				<path clip-path="url(#SVGID_68_)" fill="#E6D1AB" d="M292.42,49.12c-6.7,0-12.14,5.45-12.14,12.15s5.45,12.15,12.14,12.15
					c6.7,0,12.15-5.45,12.15-12.15S299.12,49.12,292.42,49.12 M286.09,68.88c-4.21-3.57-4.57-10.05-0.82-14.47
					c0,0-2.5,5.59,3.41,10.93c6,5.41,11.82,2,11.82,2C296.74,71.75,290.29,72.44,286.09,68.88"/>
			</g>
		</g>
	</g>
</g>
</svg>
