<?xml version="1.0" encoding="utf-8"?>
<!-- Generator: Adobe Illustrator 16.0.0, SVG Export Plug-In . SVG Version: 6.00 Build 0)  -->
<!DOCTYPE svg PUBLIC "-//W3C//DTD SVG 1.1//EN" "http://www.w3.org/Graphics/SVG/1.1/DTD/svg11.dtd">
<svg version="1.1" id="Layer_1" xmlns="http://www.w3.org/2000/svg" xmlns:xlink="http://www.w3.org/1999/xlink" x="0px" y="0px"
	 width="594.059px" height="408.042px" viewBox="0 0 594.059 408.042" enable-background="new 0 0 594.059 408.042"
	 xml:space="preserve">
<g>
	<g>
		<defs>
			<rect id="SVGID_1_" x="-384.79" y="-471.798" width="1366" height="1366"/>
		</defs>
		<clipPath id="SVGID_2_">
			<use xlink:href="#SVGID_1_"  overflow="visible"/>
		</clipPath>
		<path clip-path="url(#SVGID_2_)" fill="#E6D1AB" d="M271.584,225.244c0,0-19.203-1.896-20.458-1.959
			c-2.083-5.359-6.226-5.14-8.526-0.476c-2.45,0.474-4.549-0.208-6.698-1.49c-1.897-1.132-4.077-1.97-6.241-2.44
			c-9.974-2.18-20.075-2.823-30.254-1.946c-10.542,0.909-21.073,1.959-31.623,2.746c-5.031,0.375-10.095,0.284-14.836,0.399
			c-5.246-6.363-9.7-5.81-15.082-2.496c-8.281-0.816-19.504-5.963-26.178-12.326c-3.719-3.543-3.943-3.45-8.505-1.178
			c-0.202,0.1-0.374,0.256-0.574,0.358c-15.221,7.824-31.442,11.794-48.509,11.682c-8.892-0.059-36.13,1.475-36.13,1.475
			l-0.132-0.004c0,0,27.096,3.457,35.974,3.945c17.043,0.936,32.989,5.894,47.701,14.637c0.194,0.115,0.357,0.281,0.55,0.393
			c4.415,2.549,4.633,2.654,8.562-0.652c7.052-5.941,18.57-10.39,26.885-10.695c5.169,3.638,9.58,4.465,15.208-1.564
			c4.724,0.404,9.784,0.626,14.782,1.311c10.482,1.434,20.929,3.127,31.396,4.682c10.106,1.5,20.228,1.479,30.316-0.085
			c2.189-0.339,4.417-1.041,6.379-2.054c2.223-1.147,4.361-1.699,6.776-1.076c2.01,4.796,6.131,5.271,8.539,0.049
			C252.176,226.489,271.584,225.244,271.584,225.244 M112.875,220.685l-0.095,0.074l0.185,0.006l3.683,3.283
			c0,0-6.751,6.129-10.288,8.275c-7.995-3.697-25.61-11.574-28.2-12.732c2.297-0.86,20.741-7.782,29.051-11.021
			c3.399,2.36,9.761,8.89,9.761,8.89l-3.878,3.053l-0.427-0.014L112.875,220.685z"/>
	</g>
	<g>
		<defs>
			<rect id="SVGID_3_" x="-384.79" y="-471.798" width="1366" height="1366"/>
		</defs>
		<clipPath id="SVGID_4_">
			<use xlink:href="#SVGID_3_"  overflow="visible"/>
		</clipPath>
		<path clip-path="url(#SVGID_4_)" fill="#E6D1AB" d="M333.5,226.473c2.408,5.222,6.529,4.747,8.539-0.05
			c2.416-0.623,4.553-0.069,6.776,1.076c1.962,1.014,4.19,1.715,6.379,2.055c10.089,1.562,20.21,1.585,30.315,0.085
			c10.468-1.556,20.914-3.248,31.396-4.683c4.998-0.684,10.057-0.904,14.781-1.31c5.629,6.028,10.039,5.202,15.209,1.563
			c8.314,0.309,19.832,4.754,26.885,10.695c3.93,3.309,4.146,3.202,8.561,0.654c0.195-0.111,0.357-0.277,0.551-0.395
			c14.713-8.742,30.66-13.701,47.701-14.637c8.879-0.488,35.975-3.945,35.975-3.945l-0.133,0.004c0,0-27.236-1.53-36.129-1.473
			c-17.066,0.111-33.289-3.857-48.51-11.682c-0.199-0.103-0.373-0.258-0.574-0.358c-4.561-2.273-4.785-2.366-8.506,1.178
			c-6.672,6.363-17.895,11.509-26.178,12.324c-5.381-3.312-9.836-3.867-15.08,2.496c-4.742-0.113-9.807-0.023-14.836-0.398
			c-10.551-0.786-21.082-1.838-31.623-2.746c-10.181-0.877-20.281-0.233-30.256,1.945c-2.164,0.474-4.344,1.312-6.24,2.441
			c-2.147,1.283-4.248,1.963-6.697,1.491c-2.301-4.664-6.443-4.886-8.526,0.476c-1.255,0.061-20.458,1.959-20.458,1.959
			S332.231,226.489,333.5,226.473 M471.741,220.5l-0.428,0.015l-3.879-3.052c0,0,6.363-6.53,9.762-8.892
			c8.311,3.238,26.756,10.16,29.053,11.021c-2.592,1.158-20.205,9.035-28.201,12.732c-3.537-2.146-10.287-8.275-10.287-8.275
			l3.684-3.282l0.184-0.007l-0.094-0.073L471.741,220.5z"/>
	</g>
	<g>
		<defs>
			<rect id="SVGID_5_" x="-384.79" y="-471.798" width="1366" height="1366"/>
		</defs>
		<clipPath id="SVGID_6_">
			<use xlink:href="#SVGID_5_"  overflow="visible"/>
		</clipPath>
		<path clip-path="url(#SVGID_6_)" fill="#E6D1AB" d="M483.268,357.318c29.859,0.584,56.561,0.584,84.658,0"/>
	</g>
	<g>
		<defs>
			<rect id="SVGID_7_" x="-384.79" y="-471.798" width="1366" height="1366"/>
		</defs>
		<clipPath id="SVGID_8_">
			<use xlink:href="#SVGID_7_"  overflow="visible"/>
		</clipPath>
		<path clip-path="url(#SVGID_8_)" fill="#E6D1AB" d="M27.136,357.318c29.661,0.584,58.788,0.584,87.222,0"/>
	</g>
	<g>
		<defs>
			<rect id="SVGID_9_" x="-384.79" y="-471.798" width="1366" height="1366"/>
		</defs>
		<clipPath id="SVGID_10_">
			<use xlink:href="#SVGID_9_"  overflow="visible"/>
		</clipPath>
		<path clip-path="url(#SVGID_10_)" fill="#E6D1AB" d="M477.573,355.173c-0.246,1.699-0.291,2.939-0.551,4.271
			c28.982-0.521,61.918-1.219,90.902-2.129C538.713,356.4,506.784,355.699,477.573,355.173"/>
	</g>
	<g>
		<defs>
			<rect id="SVGID_11_" x="-384.79" y="-471.798" width="1366" height="1366"/>
		</defs>
		<clipPath id="SVGID_12_">
			<use xlink:href="#SVGID_11_"  overflow="visible"/>
		</clipPath>
		<path clip-path="url(#SVGID_12_)" fill="#E6D1AB" d="M116.076,355.162c-29.647,0.523-59.293,1.229-88.94,2.156
			c29.92,0.934,59.839,1.645,89.76,2.17C116.868,359.324,116.349,356.49,116.076,355.162"/>
	</g>
	<g>
		<defs>
			<rect id="SVGID_13_" x="-384.79" y="-471.798" width="1366" height="1366"/>
		</defs>
		<clipPath id="SVGID_14_">
			<use xlink:href="#SVGID_13_"  overflow="visible"/>
		</clipPath>
		<path clip-path="url(#SVGID_14_)" fill="#E6D1AB" d="M72.952,311.333H52.926v-2.678c1.767-0.125,3.231-0.377,4.395-0.754
			c1.166-0.377,1.749-0.844,1.749-1.396c0-0.229-0.023-0.504-0.068-0.83s-0.112-0.617-0.202-0.867l-3.991-11.997H37.901
			c-0.636,1.763-1.152,3.295-1.548,4.604c-0.396,1.306-0.754,2.515-1.072,3.619c-0.294,1.084-0.498,1.963-0.611,2.641
			c-0.114,0.681-0.171,1.232-0.171,1.662c0,1.004,0.714,1.785,2.14,2.336c1.425,0.555,3.032,0.883,4.822,0.982v2.678H23.318v-2.678
			c0.588-0.051,1.323-0.195,2.207-0.436c0.881-0.238,1.607-0.559,2.171-0.961c0.906-0.68,1.607-1.391,2.105-2.133
			c0.497-0.74,0.986-1.766,1.46-3.073c2.423-6.714,5.092-14.259,8.012-22.634c2.921-8.373,5.523-15.828,7.808-22.365h2.717
			l16.057,46.168c0.339,0.98,0.725,1.771,1.154,2.377c0.429,0.604,1.031,1.195,1.799,1.773c0.522,0.354,1.199,0.646,2.039,0.887
			c0.837,0.238,1.538,0.369,2.105,0.396V311.333z M53.569,289.457l-7.296-20.771l-7.192,20.771H53.569z"/>
	</g>
	<g>
		<defs>
			<rect id="SVGID_15_" x="-384.79" y="-471.798" width="1366" height="1366"/>
		</defs>
		<clipPath id="SVGID_16_">
			<use xlink:href="#SVGID_15_"  overflow="visible"/>
		</clipPath>
		<path clip-path="url(#SVGID_16_)" fill="#E6D1AB" d="M129.645,260.487c-0.633,0.024-1.607,0.228-2.918,0.604
			c-1.313,0.375-2.254,0.767-2.818,1.17c-0.816,0.628-1.364,1.835-1.648,3.619c-0.282,1.787-0.424,4.049-0.424,6.793v39.189h-2.954
			l-29.196-43.795v27.612c0,3.094,0.175,5.469,0.526,7.128c0.351,1.662,0.889,2.842,1.615,3.545c0.519,0.557,1.595,1.07,3.223,1.549
			c1.631,0.479,2.705,0.729,3.226,0.754v2.68H78.518v-2.68c0.611-0.049,1.642-0.295,3.091-0.732
			c1.448-0.441,2.353-0.838,2.716-1.191c0.792-0.703,1.335-1.777,1.629-3.223c0.294-1.447,0.441-3.918,0.441-7.413v-26.368
			c0-1.154-0.181-2.312-0.543-3.471c-0.363-1.154-0.849-2.049-1.46-2.676c-0.816-0.832-1.918-1.541-3.31-2.135
			c-1.391-0.59-2.52-0.91-3.377-0.96v-2.679h13.762l27.077,40.807v-25.457c0-3.117-0.18-5.512-0.543-7.184
			c-0.362-1.674-0.881-2.785-1.562-3.34c-0.632-0.477-1.669-0.94-3.105-1.395c-1.439-0.451-2.529-0.703-3.276-0.754v-2.679h19.587
			V260.487z"/>
	</g>
	<g>
		<defs>
			<rect id="SVGID_17_" x="-384.79" y="-471.798" width="1366" height="1366"/>
		</defs>
		<clipPath id="SVGID_18_">
			<use xlink:href="#SVGID_17_"  overflow="visible"/>
		</clipPath>
		<path clip-path="url(#SVGID_18_)" fill="#E6D1AB" d="M177.718,272.33h-2.342c-0.203-0.904-0.574-1.979-1.107-3.224
			c-0.533-1.244-1.128-2.42-1.784-3.526c-0.681-1.156-1.425-2.17-2.229-3.037c-0.806-0.867-1.583-1.362-2.332-1.49
			c-0.705-0.1-1.588-0.176-2.653-0.227c-1.067-0.05-2.055-0.074-2.96-0.074h-1.975v42.812c0,0.83,0.159,1.591,0.477,2.279
			c0.315,0.693,0.869,1.23,1.663,1.605c0.406,0.176,1.262,0.414,2.563,0.717c1.301,0.301,2.313,0.465,3.039,0.49v2.678h-22.747
			v-2.678c0.633-0.051,1.6-0.152,2.902-0.303c1.301-0.15,2.202-0.342,2.7-0.564c0.746-0.328,1.296-0.799,1.647-1.416
			c0.351-0.615,0.526-1.438,0.526-2.471V260.75h-1.97c-0.701,0-1.573,0.02-2.614,0.058s-2.036,0.118-2.987,0.243
			c-0.746,0.103-1.522,0.599-2.325,1.492c-0.804,0.894-1.546,1.904-2.223,3.035c-0.681,1.131-1.281,2.334-1.8,3.604
			c-0.521,1.269-0.884,2.317-1.088,3.147h-2.375v-14.521h41.994V272.33z"/>
	</g>
	<g>
		<defs>
			<rect id="SVGID_19_" x="-384.79" y="-471.798" width="1366" height="1366"/>
		</defs>
		<clipPath id="SVGID_20_">
			<use xlink:href="#SVGID_19_"  overflow="visible"/>
		</clipPath>
		<path clip-path="url(#SVGID_20_)" fill="#E6D1AB" d="M206.538,311.333h-21.694v-2.678c0.612-0.051,1.496-0.125,2.651-0.229
			c1.151-0.1,1.967-0.25,2.443-0.453c0.747-0.324,1.29-0.771,1.629-1.336c0.339-0.566,0.51-1.354,0.51-2.359v-38.777
			c0-0.879-0.126-1.613-0.375-2.205s-0.837-1.09-1.764-1.489c-0.68-0.304-1.533-0.585-2.565-0.849
			c-1.028-0.267-1.872-0.422-2.529-0.473v-2.679h21.694v2.679c-0.702,0.023-1.538,0.119-2.512,0.283
			c-0.972,0.163-1.821,0.371-2.546,0.622c-0.86,0.302-1.437,0.792-1.731,1.47c-0.294,0.682-0.44,1.436-0.44,2.264v38.74
			c0,0.829,0.163,1.564,0.49,2.207c0.33,0.641,0.889,1.148,1.681,1.525c0.476,0.201,1.251,0.424,2.325,0.662
			c1.076,0.238,1.986,0.369,2.733,0.396V311.333L206.538,311.333z"/>
	</g>
	<g>
		<defs>
			<rect id="SVGID_21_" x="-384.79" y="-471.798" width="1366" height="1366"/>
		</defs>
		<clipPath id="SVGID_22_">
			<use xlink:href="#SVGID_21_"  overflow="visible"/>
		</clipPath>
		<path clip-path="url(#SVGID_22_)" fill="#E6D1AB" d="M261.728,311.333h-13.512c-2.602-4.475-5.494-8.922-8.675-13.336
			c-3.179-4.41-6.512-8.693-9.996-12.842h-0.884v18.633c0,0.83,0.142,1.571,0.424,2.227c0.285,0.654,0.799,1.184,1.545,1.584
			c0.363,0.178,1.036,0.391,2.02,0.643s1.804,0.389,2.461,0.414v2.68h-19.995v-2.68c0.519-0.049,1.278-0.125,2.274-0.229
			c0.995-0.1,1.699-0.248,2.105-0.451c0.68-0.324,1.17-0.812,1.476-1.451c0.306-0.643,0.46-1.415,0.46-2.32V265.58
			c0-0.855-0.13-1.599-0.391-2.226c-0.261-0.629-0.775-1.146-1.545-1.547c-0.61-0.326-1.335-0.616-2.172-0.867
			c-0.839-0.252-1.574-0.403-2.207-0.452v-2.68h19.995v2.68c-0.633,0.023-1.425,0.137-2.376,0.338
			c-0.95,0.202-1.652,0.389-2.105,0.566c-0.77,0.302-1.289,0.805-1.562,1.508c-0.27,0.704-0.407,1.473-0.407,2.303v18.481h0.68
			c2.036-1.911,4.039-3.903,6.009-5.979c1.967-2.074,3.757-4.143,5.364-6.205c1.787-2.287,3.094-4.117,3.921-5.487
			c0.825-1.37,1.239-2.583,1.239-3.642c0-0.377-0.21-0.686-0.627-0.924c-0.42-0.236-0.901-0.435-1.444-0.584
			c-0.636-0.15-1.2-0.246-1.698-0.283c-0.497-0.039-0.905-0.068-1.223-0.094v-2.679h18.063v2.679c-0.069,0-0.216,0.012-0.444,0.038
			c-0.225,0.022-0.485,0.05-0.779,0.073c-0.315,0.025-0.633,0.076-0.951,0.152c-0.315,0.074-0.723,0.162-1.22,0.263
			c-0.792,0.2-1.613,0.524-2.461,0.963c-0.848,0.44-1.543,0.987-2.086,1.64c-2.33,2.944-4.76,5.988-7.289,9.135
			c-2.531,3.146-5.039,6.014-7.526,8.604c3.444,4.323,6.293,8.045,8.548,11.162c2.254,3.117,4.651,6.447,7.189,9.99
			c0.969,1.359,1.937,2.447,2.906,3.266c0.97,0.814,1.804,1.426,2.501,1.826c0.585,0.328,1.318,0.58,2.197,0.758
			c0.88,0.176,1.612,0.273,2.198,0.301V311.333z"/>
	</g>
	<g>
		<defs>
			<rect id="SVGID_23_" x="-384.79" y="-471.798" width="1366" height="1366"/>
		</defs>
		<clipPath id="SVGID_24_">
			<use xlink:href="#SVGID_23_"  overflow="visible"/>
		</clipPath>
		<path clip-path="url(#SVGID_24_)" fill="#E6D1AB" d="M313.424,260.487c-0.588,0.024-1.303,0.169-2.139,0.435
			c-0.84,0.264-1.529,0.584-2.072,0.961c-0.77,0.527-1.387,1.209-1.848,2.039c-0.465,0.828-0.926,1.81-1.378,2.939
			c-1.515,3.999-3.79,10.229-6.821,18.689c-3.035,8.464-6.157,17.283-9.371,26.461h-2.818c-3.26-9.729-6.406-19.109-9.437-28.139
			c-3.034-9.029-5.094-15.125-6.18-18.295c-0.27-0.779-0.633-1.465-1.085-2.055c-0.453-0.591-1.053-1.152-1.799-1.68
			c-0.612-0.428-1.292-0.748-2.039-0.961s-1.436-0.348-2.069-0.396v-2.679h19.932v2.679c-1.697,0.1-3.128,0.289-4.295,0.564
			c-1.164,0.277-1.747,0.768-1.747,1.472c0,0.276,0.045,0.604,0.135,0.981c0.091,0.377,0.171,0.678,0.238,0.904
			c0.838,2.463,2.197,6.483,4.074,12.059c1.877,5.574,4.549,13.51,8.012,23.802c1.721-4.655,3.7-10.154,5.94-16.495
			c2.244-6.343,3.749-10.697,4.516-13.062c0.748-2.291,1.183-3.873,1.309-4.756c0.123-0.88,0.188-1.598,0.188-2.15
			c0-0.577-0.231-1.061-0.696-1.451c-0.466-0.389-1.081-0.725-1.853-0.998c-0.746-0.252-1.504-0.441-2.272-0.566
			c-0.77-0.125-1.55-0.229-2.342-0.302v-2.679h17.917V260.487L313.424,260.487z"/>
	</g>
	<g>
		<defs>
			<rect id="SVGID_25_" x="-384.79" y="-471.798" width="1366" height="1366"/>
		</defs>
		<clipPath id="SVGID_26_">
			<use xlink:href="#SVGID_25_"  overflow="visible"/>
		</clipPath>
		<path clip-path="url(#SVGID_26_)" fill="#E6D1AB" d="M356.157,311.333h-20.025v-2.678c1.768-0.125,3.231-0.377,4.396-0.754
			c1.166-0.377,1.749-0.844,1.749-1.396c0-0.229-0.022-0.504-0.067-0.83s-0.111-0.617-0.203-0.867l-3.99-11.997h-16.908
			c-0.636,1.763-1.152,3.295-1.548,4.604c-0.396,1.306-0.754,2.515-1.071,3.619c-0.294,1.084-0.498,1.963-0.611,2.641
			c-0.113,0.681-0.17,1.232-0.17,1.662c0,1.004,0.713,1.785,2.141,2.336c1.424,0.555,3.031,0.883,4.82,0.982v2.678h-18.144v-2.678
			c0.589-0.051,1.323-0.195,2.207-0.436c0.882-0.238,1.606-0.559,2.171-0.961c0.906-0.68,1.607-1.391,2.105-2.133
			c0.498-0.74,0.986-1.766,1.459-3.073c2.424-6.714,5.093-14.259,8.013-22.634c2.921-8.373,5.524-15.828,7.81-22.365h2.715
			l16.059,46.168c0.339,0.98,0.727,1.771,1.154,2.377s1.031,1.195,1.799,1.773c0.521,0.354,1.199,0.646,2.039,0.887
			c0.837,0.238,1.537,0.369,2.104,0.396v2.678H356.157z M336.774,289.457l-7.296-20.771l-7.19,20.771H336.774z"/>
	</g>
	<g>
		<defs>
			<rect id="SVGID_27_" x="-384.79" y="-471.798" width="1366" height="1366"/>
		</defs>
		<clipPath id="SVGID_28_">
			<use xlink:href="#SVGID_27_"  overflow="visible"/>
		</clipPath>
		<path clip-path="url(#SVGID_28_)" fill="#E6D1AB" d="M409.487,311.333h-12.975c-2.872-5.004-5.465-9.33-7.783-12.976
			c-2.318-3.647-4.834-7.407-7.545-11.28h-4.936v16.973c0,0.884,0.125,1.656,0.373,2.322c0.25,0.666,0.78,1.176,1.596,1.529
			c0.408,0.176,1.121,0.338,2.139,0.49c1.02,0.148,1.88,0.236,2.582,0.264v2.678h-20.369v-2.678
			c0.543-0.051,1.328-0.139,2.357-0.264c1.029-0.127,1.75-0.289,2.156-0.49c0.68-0.328,1.17-0.807,1.477-1.436
			c0.307-0.627,0.46-1.434,0.46-2.416v-38.7c0-0.879-0.114-1.659-0.339-2.337c-0.229-0.682-0.76-1.195-1.598-1.547
			c-0.564-0.227-1.303-0.436-2.207-0.623c-0.905-0.188-1.674-0.309-2.308-0.357v-2.679h22.233c2.039,0,3.949,0.231,5.74,0.696
			c1.787,0.468,3.406,1.215,4.854,2.246c1.402,1.004,2.521,2.319,3.359,3.94c0.838,1.622,1.258,3.577,1.258,5.864
			c0,2.062-0.283,3.888-0.85,5.472c-0.566,1.583-1.402,2.955-2.512,4.108c-1.021,1.085-2.24,2.021-3.668,2.812
			c-1.425,0.793-2.998,1.465-4.72,2.02c2.378,3.494,4.353,6.437,5.925,8.826s3.504,5.293,5.787,8.713
			c0.996,1.511,1.896,2.621,2.699,3.338c0.803,0.719,1.602,1.301,2.396,1.754c0.588,0.328,1.32,0.58,2.207,0.758
			c0.881,0.176,1.615,0.273,2.205,0.301v2.678H409.487z M391.627,271.446c0-3.237-0.836-5.806-2.512-7.702
			c-1.674-1.896-4.039-2.842-7.096-2.842h-5.771v22.934h4.447c3.124,0,5.727-1.108,7.811-3.332
			C390.588,278.283,391.627,275.262,391.627,271.446"/>
	</g>
	<g>
		<defs>
			<rect id="SVGID_29_" x="-384.79" y="-471.798" width="1366" height="1366"/>
		</defs>
		<clipPath id="SVGID_30_">
			<use xlink:href="#SVGID_29_"  overflow="visible"/>
		</clipPath>
		<path clip-path="url(#SVGID_30_)" fill="#E6D1AB" d="M437.336,311.333h-21.693v-2.678c0.611-0.051,1.496-0.125,2.65-0.229
			c1.15-0.1,1.967-0.25,2.443-0.453c0.746-0.324,1.289-0.771,1.629-1.336c0.338-0.566,0.51-1.354,0.51-2.359v-38.777
			c0-0.879-0.127-1.613-0.375-2.205c-0.25-0.592-0.838-1.09-1.764-1.489c-0.682-0.304-1.533-0.585-2.564-0.849
			c-1.029-0.267-1.873-0.422-2.529-0.473v-2.679h21.693v2.679c-0.701,0.023-1.539,0.119-2.512,0.283
			c-0.973,0.163-1.82,0.371-2.547,0.622c-0.859,0.302-1.438,0.792-1.73,1.47c-0.293,0.682-0.439,1.436-0.439,2.264v38.74
			c0,0.829,0.164,1.564,0.49,2.207c0.328,0.641,0.889,1.148,1.682,1.525c0.477,0.201,1.25,0.424,2.324,0.662
			c1.076,0.238,1.986,0.369,2.732,0.396V311.333z"/>
	</g>
	<g>
		<defs>
			<rect id="SVGID_31_" x="-384.79" y="-471.798" width="1366" height="1366"/>
		</defs>
		<clipPath id="SVGID_32_">
			<use xlink:href="#SVGID_31_"  overflow="visible"/>
		</clipPath>
		<path clip-path="url(#SVGID_32_)" fill="#E6D1AB" d="M477.141,260.487c-0.637,0.024-1.42,0.119-2.357,0.282
			c-0.941,0.164-1.738,0.372-2.396,0.623c-0.77,0.302-1.289,0.804-1.561,1.508c-0.273,0.704-0.408,1.473-0.408,2.303v31.723
			c0,1.66-0.299,3.421-0.898,5.281s-1.477,3.521-2.631,4.979c-1.336,1.711-2.926,3.043-4.77,3.998
			c-1.846,0.955-3.955,1.436-6.332,1.436c-3.689,0-6.684-1.15-8.98-3.451c-2.297-2.303-3.443-5.399-3.443-9.299
			c0-1.709,0.395-3.225,1.188-4.545s1.947-1.98,3.463-1.98c1.359,0,2.449,0.422,3.277,1.263c0.824,0.845,1.236,1.956,1.236,3.34
			c0,0.804-0.146,1.609-0.441,2.413c-0.293,0.807-0.621,1.521-0.982,2.15c-0.34,0.578-0.727,1.259-1.154,2.035
			c-0.43,0.779-0.734,1.484-0.918,2.115c0.477,0.83,1.217,1.559,2.225,2.186c1.008,0.631,2.361,0.943,4.059,0.943
			c1.652,0,3.004-0.42,4.057-1.264c1.053-0.842,1.838-1.969,2.359-3.376c0.498-1.308,0.854-2.918,1.068-4.829
			c0.217-1.91,0.324-4.048,0.324-6.41v-28.33c0-0.879-0.131-1.615-0.393-2.207c-0.262-0.59-0.797-1.111-1.611-1.563
			c-0.701-0.402-1.578-0.711-2.631-0.925c-1.055-0.213-1.918-0.346-2.6-0.396v-2.679h21.254v2.677H477.141z"/>
	</g>
	<g>
		<defs>
			<rect id="SVGID_33_" x="-384.79" y="-471.798" width="1366" height="1366"/>
		</defs>
		<clipPath id="SVGID_34_">
			<use xlink:href="#SVGID_33_"  overflow="visible"/>
		</clipPath>
		<path clip-path="url(#SVGID_34_)" fill="#E6D1AB" d="M527.188,311.333h-20.025v-2.678c1.766-0.125,3.23-0.377,4.395-0.754
			c1.166-0.377,1.75-0.844,1.75-1.396c0-0.229-0.023-0.504-0.068-0.83s-0.111-0.617-0.203-0.867l-3.99-11.997h-16.908
			c-0.635,1.763-1.15,3.295-1.547,4.604c-0.396,1.306-0.754,2.515-1.072,3.619c-0.293,1.084-0.496,1.963-0.611,2.641
			c-0.113,0.681-0.17,1.232-0.17,1.662c0,1.004,0.713,1.785,2.141,2.336c1.424,0.555,3.031,0.883,4.822,0.982v2.678h-18.145v-2.678
			c0.588-0.051,1.322-0.195,2.207-0.436c0.881-0.238,1.605-0.559,2.17-0.961c0.906-0.68,1.607-1.391,2.105-2.133
			c0.496-0.74,0.986-1.766,1.459-3.073c2.424-6.714,5.094-14.259,8.014-22.634c2.92-8.373,5.523-15.828,7.809-22.365h2.717
			l16.057,46.168c0.34,0.98,0.727,1.771,1.154,2.377c0.43,0.604,1.031,1.195,1.799,1.773c0.521,0.354,1.199,0.646,2.039,0.887
			c0.836,0.238,1.539,0.369,2.105,0.396v2.678H527.188z M507.803,289.457l-7.295-20.771l-7.191,20.771H507.803z"/>
	</g>
	<g>
		<defs>
			<rect id="SVGID_35_" x="-384.79" y="-471.798" width="1366" height="1366"/>
		</defs>
		<clipPath id="SVGID_36_">
			<use xlink:href="#SVGID_35_"  overflow="visible"/>
		</clipPath>
		<path clip-path="url(#SVGID_36_)" fill="#E6D1AB" d="M569.268,272.33h-2.342c-0.203-0.904-0.572-1.979-1.105-3.224
			c-0.533-1.244-1.129-2.42-1.785-3.526c-0.68-1.156-1.426-2.17-2.229-3.037c-0.809-0.867-1.584-1.362-2.334-1.49
			c-0.703-0.1-1.588-0.176-2.65-0.227c-1.066-0.05-2.057-0.074-2.961-0.074h-1.977v42.812c0,0.83,0.16,1.591,0.479,2.279
			c0.314,0.693,0.869,1.23,1.664,1.605c0.404,0.176,1.262,0.414,2.561,0.717c1.303,0.301,2.314,0.465,3.039,0.49v2.678h-22.746
			v-2.678c0.633-0.051,1.602-0.152,2.902-0.303c1.299-0.15,2.201-0.342,2.699-0.564c0.746-0.328,1.297-0.799,1.646-1.416
			c0.352-0.615,0.525-1.438,0.525-2.471V260.75h-1.969c-0.701,0-1.574,0.02-2.615,0.058s-2.035,0.118-2.986,0.243
			c-0.746,0.103-1.521,0.599-2.326,1.492s-1.545,1.904-2.223,3.035c-0.68,1.131-1.279,2.334-1.799,3.604
			c-0.521,1.269-0.885,2.317-1.088,3.147h-2.375v-14.521h41.992v14.521H569.268z"/>
	</g>
	<g>
		<defs>
			<rect id="SVGID_37_" x="-384.79" y="-471.798" width="1366" height="1366"/>
		</defs>
		<clipPath id="SVGID_38_">
			<use xlink:href="#SVGID_37_"  overflow="visible"/>
		</clipPath>
		<path clip-path="url(#SVGID_38_)" fill="#E6D1AB" d="M133.778,342.011h11.947v2.189h-0.915c-0.846,0-1.377,0.037-1.595,0.107
			c-0.316,0.104-0.553,0.275-0.716,0.512c-0.166,0.234-0.247,0.504-0.247,0.803c0,0.471,0.157,1.154,0.469,2.047l8.695,25.189
			l8.787-25.189c0.313-0.893,0.47-1.566,0.47-2.021c0-0.508-0.157-0.873-0.47-1.104c-0.312-0.229-0.953-0.342-1.925-0.342H157.2
			v-2.189h10.166v2.189c-0.874-0.018-1.521,0.072-1.934,0.264c-0.414,0.193-0.756,0.465-1.021,0.814
			c-0.33,0.475-0.697,1.271-1.103,2.393l-11.143,30.713h-3.321l-11.029-30.715c-0.36-1.016-0.609-1.646-0.751-1.893
			c-0.219-0.367-0.465-0.664-0.738-0.895c-0.275-0.227-0.599-0.396-0.974-0.512c-0.377-0.113-0.901-0.172-1.574-0.172V342.011
			L133.778,342.011z"/>
	</g>
	<g>
		<defs>
			<rect id="SVGID_39_" x="-384.79" y="-471.798" width="1366" height="1366"/>
		</defs>
		<clipPath id="SVGID_40_">
			<use xlink:href="#SVGID_39_"  overflow="visible"/>
		</clipPath>
		<path clip-path="url(#SVGID_40_)" fill="#E6D1AB" d="M173.067,342.011h16.896c3.207,0,5.633,0.371,7.275,1.109
			c1.643,0.74,2.907,1.809,3.79,3.207c0.885,1.398,1.326,3.02,1.326,4.861c0,1.896-0.432,3.576-1.295,5.047
			c-0.863,1.471-2.104,2.625-3.728,3.469s-3.776,1.281-6.46,1.314l8.667,11.736c0.704,0.971,1.163,1.57,1.384,1.797
			c0.547,0.539,1.121,0.947,1.723,1.227c0.602,0.277,1.28,0.416,2.032,0.416h0.585v2.189h-7.455l-12.037-17.365h-4.207v11.213
			c0,1.252,0.038,2.033,0.116,2.348c0.173,0.592,0.45,1.01,0.834,1.25c0.382,0.244,1.131,0.365,2.24,0.365h0.847v2.189h-12.533
			v-2.189h1.126c0.847,0,1.413-0.061,1.702-0.184c0.29-0.121,0.548-0.334,0.775-0.637c0.226-0.305,0.387-0.693,0.481-1.162
			c0.031-0.188,0.055-1.068,0.069-2.633v-23.807c0-1.059-0.092-1.816-0.28-2.273c-0.189-0.461-0.45-0.791-0.787-0.992
			c-0.336-0.205-0.919-0.307-1.749-0.307h-1.337V342.011z M181.563,344.853v13.689h6.744c2.287,0,3.894-0.156,4.819-0.469
			c1.315-0.418,2.354-1.182,3.114-2.295c0.759-1.113,1.138-2.529,1.138-4.25c0-1.461-0.273-2.688-0.822-3.688
			c-0.548-1.002-1.297-1.748-2.243-2.242c-0.948-0.496-2.363-0.746-4.243-0.746H181.563z"/>
	</g>
	<g>
		<defs>
			<rect id="SVGID_41_" x="-384.79" y="-471.798" width="1366" height="1366"/>
		</defs>
		<clipPath id="SVGID_42_">
			<use xlink:href="#SVGID_41_"  overflow="visible"/>
		</clipPath>
		<path clip-path="url(#SVGID_42_)" fill="#E6D1AB" d="M211.018,342.011h26.612l3.075,9.57l-2.067,0.859
			c-0.517-1.564-1.081-2.791-1.69-3.688c-0.612-0.896-1.345-1.656-2.198-2.283c-0.853-0.625-1.716-1.043-2.584-1.252
			c-0.87-0.207-2.439-0.311-4.712-0.311h-7.941v13.322h3.954c1.458,0,2.56-0.271,3.304-0.818c0.745-0.549,1.259-1.23,1.541-2.049
			c0.221-0.607,0.33-1.668,0.33-3.182v-0.6h2.299v15.957h-2.299v-1.383c0-1.217-0.083-2.094-0.247-2.633
			c-0.166-0.537-0.467-1.047-0.905-1.523c-0.441-0.48-0.915-0.805-1.425-0.98c-0.509-0.172-1.375-0.26-2.598-0.26h-3.954v11.816
			c0,1.232,0.05,1.982,0.152,2.25c0.102,0.271,0.27,0.467,0.507,0.588c0.235,0.123,0.877,0.182,1.928,0.182h4.911
			c2.74,0,4.883-0.363,6.426-1.096c1.543-0.729,2.901-1.848,4.075-3.354c0.924-1.18,1.808-2.842,2.652-4.99l2.136,0.834
			l-3.662,11.396h-27.62v-2.189h0.938c1.096,0,1.776-0.076,2.044-0.232c0.405-0.225,0.718-0.588,0.938-1.088
			c0.155-0.344,0.233-1.096,0.233-2.252v-25.059c0-1.139-0.102-1.9-0.304-2.285c-0.203-0.387-0.557-0.686-1.057-0.895
			c-0.265-0.123-1.197-0.186-2.792-0.186V342.011L211.018,342.011z"/>
	</g>
	<g>
		<defs>
			<rect id="SVGID_43_" x="-384.79" y="-471.798" width="1366" height="1366"/>
		</defs>
		<clipPath id="SVGID_44_">
			<use xlink:href="#SVGID_43_"  overflow="visible"/>
		</clipPath>
		<path clip-path="url(#SVGID_44_)" fill="#E6D1AB" d="M247.37,342.011h10.342l9.664,28.812l9.442-28.812h9.977v2.189h-0.844
			c-1.017,0-1.702,0.098-2.053,0.289c-0.353,0.193-0.631,0.533-0.834,1.014c-0.204,0.48-0.304,1.273-0.304,2.375v23.988
			c0,1.512,0.081,2.496,0.247,2.947c0.163,0.451,0.436,0.795,0.82,1.029c0.384,0.234,1.09,0.352,2.124,0.352h0.844v2.189h-12.507
			v-2.189h0.892c0.796,0,1.379-0.068,1.747-0.209c0.367-0.137,0.673-0.367,0.917-0.689c0.242-0.322,0.377-0.656,0.41-1.004
			c0.078-0.711,0.116-1.27,0.116-1.67v-26.777l-10.69,32.541h-2.345l-10.759-32.07v25.76c0,1.312,0.102,2.201,0.304,2.666
			c0.203,0.463,0.521,0.822,0.95,1.076c0.432,0.252,1.202,0.379,2.311,0.379h0.752v2.189H247.37v-2.189h0.659
			c1.11,0,1.904-0.131,2.38-0.393c0.479-0.262,0.818-0.629,1.022-1.105c0.204-0.479,0.306-1.422,0.306-2.83v-23.754
			c0-1.33-0.088-2.209-0.259-2.641c-0.173-0.426-0.458-0.744-0.856-0.957c-0.4-0.209-1.106-0.314-2.124-0.314h-1.128V342.011z"/>
	</g>
	<g>
		<defs>
			<rect id="SVGID_45_" x="-384.79" y="-471.798" width="1366" height="1366"/>
		</defs>
		<clipPath id="SVGID_46_">
			<use xlink:href="#SVGID_45_"  overflow="visible"/>
		</clipPath>
		<path clip-path="url(#SVGID_46_)" fill="#E6D1AB" d="M293.754,342.011h26.614l3.073,9.57l-2.067,0.859
			c-0.517-1.564-1.08-2.791-1.688-3.688c-0.612-0.896-1.347-1.656-2.198-2.283c-0.852-0.625-1.716-1.043-2.583-1.252
			c-0.87-0.207-2.44-0.311-4.713-0.311h-7.94v13.322h3.955c1.457,0,2.56-0.271,3.303-0.818c0.744-0.549,1.26-1.23,1.541-2.049
			c0.222-0.607,0.33-1.668,0.33-3.182v-0.6h2.3v15.957h-2.3v-1.383c0-1.217-0.084-2.094-0.248-2.633
			c-0.164-0.537-0.465-1.047-0.903-1.523c-0.44-0.48-0.915-0.805-1.425-0.98c-0.51-0.172-1.375-0.26-2.598-0.26h-3.955v11.816
			c0,1.232,0.051,1.982,0.151,2.25c0.103,0.271,0.271,0.467,0.509,0.588c0.233,0.123,0.877,0.182,1.926,0.182h4.912
			c2.739,0,4.883-0.363,6.426-1.096c1.543-0.729,2.902-1.848,4.074-3.354c0.924-1.18,1.81-2.842,2.652-4.99l2.137,0.834
			l-3.662,11.396h-27.621v-2.189h0.938c1.096,0,1.776-0.076,2.044-0.232c0.405-0.225,0.718-0.588,0.938-1.088
			c0.156-0.344,0.234-1.096,0.234-2.252v-25.059c0-1.139-0.103-1.9-0.304-2.285c-0.204-0.387-0.558-0.686-1.058-0.895
			c-0.265-0.123-1.197-0.186-2.792-0.186L293.754,342.011L293.754,342.011z"/>
	</g>
	<g>
		<defs>
			<rect id="SVGID_47_" x="-384.79" y="-471.798" width="1366" height="1366"/>
		</defs>
		<clipPath id="SVGID_48_">
			<use xlink:href="#SVGID_47_"  overflow="visible"/>
		</clipPath>
		<path clip-path="url(#SVGID_48_)" fill="#E6D1AB" d="M330.065,342.011h12.938c3.932,0,6.641,0.279,8.129,0.834
			c1.863,0.662,3.402,1.793,4.615,3.391c1.213,1.602,1.819,3.635,1.819,6.102c0,2.105-0.461,3.922-1.386,5.451
			c-1.112,1.844-2.463,3.152-4.055,3.924c-1.59,0.773-4.094,1.16-7.506,1.16h-5.994v9.334c0,1.393,0.072,2.27,0.211,2.635
			c0.19,0.504,0.449,0.857,0.775,1.057c0.33,0.199,0.992,0.299,1.996,0.299h1.126v2.189h-12.671v-2.189h0.773
			c1.078,0,1.812-0.1,2.205-0.299c0.391-0.199,0.676-0.512,0.854-0.939c0.181-0.426,0.271-1.229,0.271-2.412v-24.877
			c0-1.154-0.08-1.93-0.246-2.324c-0.164-0.395-0.438-0.684-0.82-0.865c-0.385-0.186-1.139-0.277-2.264-0.277h-0.773v-2.191H330.065
			z M338.627,344.853v15.256h5.055c2.556,0,4.346-0.252,5.372-0.758c1.026-0.502,1.877-1.377,2.55-2.619
			c0.676-1.24,1.014-2.699,1.014-4.367c0-1.826-0.395-3.352-1.176-4.576c-0.786-1.227-1.85-2.055-3.197-2.49
			c-0.939-0.295-2.773-0.443-5.5-0.443h-4.117V344.853z"/>
	</g>
	<g>
		<defs>
			<rect id="SVGID_49_" x="-384.79" y="-471.798" width="1366" height="1366"/>
		</defs>
		<clipPath id="SVGID_50_">
			<use xlink:href="#SVGID_49_"  overflow="visible"/>
		</clipPath>
		<path clip-path="url(#SVGID_50_)" fill="#E6D1AB" d="M361.771,342.011h12.692v2.189h-1.172c-0.906,0-1.549,0.098-1.924,0.289
			c-0.377,0.195-0.648,0.475-0.822,0.844c-0.172,0.367-0.258,1.025-0.258,1.971v25.371c0,1.166,0.041,1.861,0.118,2.086
			c0.093,0.312,0.296,0.541,0.608,0.678c0.221,0.105,0.854,0.156,1.9,0.156h1.762c2.018,0,3.77-0.324,5.256-0.977
			c1.484-0.652,2.77-1.602,3.85-2.842c1.078-1.242,2.119-3.1,3.122-5.568l2.089,0.781l-3.662,11.396H361.77v-2.189h1.031
			c1,0,1.674-0.096,2.02-0.287c0.344-0.189,0.609-0.508,0.797-0.951s0.281-1.203,0.281-2.283v-24.744
			c0-1.258-0.085-2.104-0.258-2.533c-0.174-0.43-0.422-0.734-0.752-0.916c-0.327-0.186-1.023-0.279-2.088-0.279h-1.031
			L361.771,342.011L361.771,342.011z"/>
	</g>
	<g>
		<defs>
			<rect id="SVGID_51_" x="-384.79" y="-471.798" width="1366" height="1366"/>
		</defs>
		<clipPath id="SVGID_52_">
			<use xlink:href="#SVGID_51_"  overflow="visible"/>
		</clipPath>
		<path clip-path="url(#SVGID_52_)" fill="#E6D1AB" d="M411.325,341.386c2.99,0,5.689,0.801,8.102,2.398
			c2.613,1.721,4.621,3.957,6.023,6.701c1.398,2.748,2.102,5.928,2.102,9.543c0,5.6-1.566,10.162-4.695,13.688
			c-3.131,3.531-7.125,5.295-11.979,5.295c-5.416,0-9.707-2.119-12.869-6.361c-2.582-3.461-3.875-7.596-3.875-12.412
			c0-3.58,0.729-6.791,2.188-9.635c1.455-2.84,3.521-5.088,6.197-6.74C405.196,342.212,408.131,341.386,411.325,341.386
			 M411.315,344.203c-2.447,0-4.549,0.623-6.305,1.865s-3.162,3.07-4.221,5.486c-1.059,2.42-1.586,5.398-1.586,8.943
			c0,3.391,0.52,6.264,1.561,8.619c1.043,2.355,2.443,4.158,4.199,5.41s3.73,1.877,5.926,1.877c2.18,0,4.107-0.611,5.783-1.838
			c1.678-1.225,3.064-3.154,4.162-5.787c1.098-2.635,1.648-5.561,1.648-8.775c0-3.268-0.551-6.258-1.648-8.971
			c-0.939-2.326-2.188-4.049-3.738-5.162C415.545,344.759,413.618,344.203,411.315,344.203"/>
	</g>
	<g>
		<defs>
			<rect id="SVGID_53_" x="-384.79" y="-471.798" width="1366" height="1366"/>
		</defs>
		<clipPath id="SVGID_54_">
			<use xlink:href="#SVGID_53_"  overflow="visible"/>
		</clipPath>
		<path clip-path="url(#SVGID_54_)" fill="#E6D1AB" d="M430.301,342.011h11.947v2.189h-0.916c-0.846,0-1.377,0.037-1.596,0.107
			c-0.314,0.104-0.553,0.275-0.717,0.512c-0.164,0.234-0.244,0.504-0.244,0.803c0,0.471,0.154,1.154,0.469,2.047l8.695,25.189
			l8.785-25.189c0.312-0.893,0.471-1.566,0.471-2.021c0-0.508-0.156-0.873-0.471-1.104c-0.312-0.229-0.951-0.342-1.924-0.342h-1.08
			v-2.189h10.168v2.189c-0.875-0.018-1.521,0.072-1.936,0.264c-0.414,0.193-0.756,0.465-1.021,0.814
			c-0.328,0.475-0.695,1.271-1.102,2.393l-11.145,30.713h-3.32l-11.029-30.715c-0.359-1.016-0.609-1.646-0.75-1.893
			c-0.219-0.367-0.465-0.664-0.738-0.895c-0.275-0.227-0.6-0.396-0.975-0.512c-0.377-0.113-0.9-0.172-1.574-0.172v-2.189H430.301z"
			/>
	</g>
	<g>
		<defs>
			<rect id="SVGID_55_" x="-384.79" y="-471.798" width="1366" height="1366"/>
		</defs>
		<clipPath id="SVGID_56_">
			<use xlink:href="#SVGID_55_"  overflow="visible"/>
		</clipPath>
		<path clip-path="url(#SVGID_56_)" fill="#E6D1AB" d="M280.09,220.943c2.269-4.423,6.864-7.455,12.176-7.455
			c5.312,0,9.906,3.032,12.176,7.455l131.107-38.642L315.111,211.39l105.522-64.467l-110.928,60.426l89.977-94.559l-93.793,89.251
			l61.314-112.562l-65.463,107.154L328.103,86.67l-33.345,112.429l-2.792-69.637l-2.72,67.853L256.43,86.67l26.362,109.963
			L217.327,89.479l61.316,112.562l-93.795-89.251l89.977,94.558l-110.927-60.425l105.525,64.468l-120.441-29.09L280.09,220.943z"/>
	</g>
	<g>
		<defs>
			<rect id="SVGID_57_" x="-384.79" y="-471.798" width="1366" height="1366"/>
		</defs>
		<clipPath id="SVGID_58_">
			<use xlink:href="#SVGID_57_"  overflow="visible"/>
		</clipPath>
		<path clip-path="url(#SVGID_58_)" fill="#E6D1AB" d="M295.959,227.175c0,2.039-1.654,3.693-3.693,3.693s-3.693-1.654-3.693-3.693
			s1.654-3.692,3.693-3.692S295.959,225.136,295.959,227.175"/>
	</g>
</g>
<g>
	<g>
		<defs>
			<polygon id="SVGID_59_" points="26.643,-38.853 26.643,173.823 293.86,227.175 527.737,178.678 530.514,-38.853 			"/>
		</defs>
		<clipPath id="SVGID_60_">
			<use xlink:href="#SVGID_59_"  overflow="visible"/>
		</clipPath>
		<path clip-path="url(#SVGID_60_)" fill="#E6D1AB" d="M334.383,74.182c68.891,17.8,119.188,80.313,119.188,154.726
			c0,88.225-71.775,160-160.001,160c-88.225,0-160-71.775-160-160c0-71.696,47.567-132.746,112.698-153.056
			c0.302,0.055,15.302-6.945,15.606-6.828C187.117,83.818,130.57,149.873,130.57,228.908c0,89.879,73.121,163,163,163
			c89.878,0,163.001-73.121,163.001-163c0-80.132-58.613-147.033-134.914-160.578L334.383,74.182z"/>
	</g>
	<g>
		<defs>
			<polygon id="SVGID_61_" points="26.643,-38.853 26.643,173.823 293.86,227.175 527.737,178.678 530.514,-38.853 			"/>
		</defs>
		<clipPath id="SVGID_62_">
			<use xlink:href="#SVGID_61_"  overflow="visible"/>
		</clipPath>
		<path clip-path="url(#SVGID_62_)" fill="#E6D1AB" d="M292.705,414.527c-1.138,0-2.14-0.92-2.14-2.059s0.839-2.059,1.977-2.059
			l1.011-0.002h0.014c1.13,0,2.051,0.912,2.059,2.043c0.008,1.137-0.907,2.064-2.045,2.074L292.705,414.527z M280.26,414.103
			c-0.049,0-0.099-0.002-0.147-0.006l-1.023-0.07c-1.134-0.078-1.988-1.064-1.908-2.197c0.08-1.135,1.075-2.002,2.197-1.908
			l1.023,0.072c1.135,0.078,1.989,1.062,1.909,2.197C282.234,413.277,281.332,414.103,280.26,414.103 M305.853,414.064
			c-1.065,0-1.966-0.82-2.05-1.898c-0.09-1.135,0.759-2.123,1.895-2.213l1.018-0.076c1.154-0.09,2.123,0.762,2.211,1.895
			c0.087,1.135-0.762,2.125-1.895,2.213l-1.018,0.074C305.959,414.06,305.905,414.064,305.853,414.064 M267.017,412.718
			c-0.097,0-0.195-0.006-0.294-0.02l-1.025-0.148c-1.124-0.168-1.902-1.213-1.735-2.338c0.165-1.125,1.204-1.898,2.338-1.736
			l1.006,0.146c1.125,0.16,1.907,1.205,1.747,2.33C268.907,411.978,268.026,412.718,267.017,412.718 M319.088,412.642
			c-1.004,0-1.883-0.732-2.034-1.754c-0.167-1.127,0.608-2.174,1.731-2.342l1.014-0.148c1.125-0.152,2.174,0.607,2.341,1.73
			c0.167,1.127-0.608,2.174-1.731,2.342l-1.015,0.15C319.292,412.634,319.188,412.642,319.088,412.642 M253.909,410.367
			c-0.145,0-0.292-0.016-0.439-0.045l-1.001-0.221c-1.112-0.24-1.817-1.336-1.576-2.447c0.239-1.111,1.341-1.822,2.449-1.576
			l1.001,0.219c1.112,0.24,1.817,1.336,1.576,2.449C255.71,409.708,254.855,410.367,253.909,410.367 M332.186,410.259
			c-0.941,0-1.793-0.65-2.006-1.609c-0.249-1.109,0.449-2.209,1.561-2.457l1.002-0.223c1.114-0.25,2.209,0.449,2.457,1.561
			c0.248,1.109-0.451,2.209-1.562,2.457l-1.001,0.223C332.485,410.246,332.334,410.259,332.186,410.259 M241.009,407.058
			c-0.191,0-0.385-0.025-0.578-0.084l-1-0.297c-1.087-0.328-1.704-1.477-1.379-2.564c0.328-1.088,1.464-1.707,2.566-1.379
			l0.97,0.289c1.09,0.318,1.718,1.465,1.398,2.555C242.723,406.474,241.902,407.058,241.009,407.058 M345.081,406.929
			c-0.887,0-1.701-0.576-1.972-1.467c-0.325-1.09,0.291-2.238,1.379-2.564l0.979-0.293c1.082-0.33,2.236,0.285,2.564,1.375
			c0.329,1.088-0.285,2.234-1.375,2.564l-0.982,0.297C345.478,406.902,345.276,406.929,345.081,406.929 M228.372,402.798
			c-0.242,0-0.487-0.041-0.728-0.133l-0.969-0.369c-1.062-0.408-1.593-1.598-1.184-2.66c0.408-1.059,1.598-1.586,2.659-1.184
			l0.95,0.361c1.063,0.402,1.6,1.588,1.198,2.652C229.986,402.292,229.204,402.798,228.372,402.798 M357.693,402.658
			c-0.829,0-1.608-0.504-1.923-1.32c-0.407-1.062,0.123-2.252,1.186-2.66l0.953-0.367c1.059-0.406,2.252,0.117,2.661,1.18
			s-0.118,2.254-1.179,2.662l-0.961,0.369C358.187,402.613,357.938,402.658,357.693,402.658 M216.082,397.628
			c-0.292,0-0.587-0.062-0.871-0.193l-0.929-0.434c-1.029-0.484-1.473-1.707-0.993-2.738c0.482-1.027,1.699-1.471,2.738-0.994
			l0.93,0.436c1.029,0.48,1.473,1.707,0.993,2.738C217.6,397.191,216.858,397.628,216.082,397.628 M369.942,397.474
			c-0.775,0-1.518-0.438-1.867-1.188c-0.48-1.031-0.035-2.256,0.993-2.738l0.921-0.432c1.031-0.484,2.254-0.043,2.74,0.986
			c0.482,1.029,0.041,2.256-0.986,2.74l-0.93,0.438C370.529,397.412,370.234,397.474,369.942,397.474 M204.208,391.57
			c-0.34,0-0.684-0.084-1-0.262l-0.908-0.51c-0.989-0.562-1.337-1.818-0.776-2.807s1.819-1.334,2.807-0.775l0.88,0.494
			c0.993,0.555,1.351,1.807,0.798,2.801C205.631,391.189,204.93,391.57,204.208,391.57 M381.78,391.412
			c-0.72,0-1.419-0.379-1.797-1.053c-0.559-0.99-0.203-2.248,0.787-2.803l0.877-0.496c0.984-0.566,2.244-0.221,2.809,0.768
			c0.565,0.988,0.223,2.244-0.766,2.809l-0.904,0.512C382.465,391.326,382.122,391.412,381.78,391.412 M192.812,384.664
			c-0.385,0-0.777-0.109-1.126-0.336l-0.868-0.574c-0.947-0.631-1.202-1.908-0.571-2.854c0.627-0.947,1.904-1.201,2.855-0.572
			l0.84,0.555c0.952,0.623,1.217,1.9,0.596,2.852C194.142,384.335,193.484,384.664,192.812,384.664 M393.144,384.494
			c-0.672,0-1.329-0.328-1.726-0.934c-0.621-0.949-0.356-2.227,0.596-2.85l0.838-0.555c0.947-0.629,2.225-0.377,2.855,0.57
			c0.631,0.945,0.375,2.225-0.571,2.854l-0.865,0.576C393.922,384.382,393.529,384.494,393.144,384.494 M181.952,376.945
			c-0.434,0-0.874-0.137-1.246-0.422l-0.827-0.637c-0.899-0.695-1.061-1.988-0.363-2.889c0.697-0.895,1.99-1.062,2.888-0.363
			l0.799,0.615c0.904,0.688,1.077,1.982,0.388,2.885C183.186,376.666,182.573,376.945,181.952,376.945 M403.979,376.763
			c-0.615,0-1.223-0.271-1.629-0.795c-0.697-0.898-0.533-2.191,0.363-2.891l0.811-0.627c0.898-0.697,2.189-0.533,2.889,0.365
			c0.697,0.896,0.535,2.189-0.363,2.889l-0.809,0.627C404.864,376.625,404.42,376.763,403.979,376.763 M171.685,368.462
			c-0.489,0-0.978-0.17-1.37-0.521l-0.775-0.695c-0.843-0.762-0.909-2.064-0.145-2.906c0.764-0.84,2.064-0.912,2.907-0.145
			l0.752,0.67c0.848,0.758,0.924,2.059,0.169,2.908C172.816,368.23,172.251,368.462,171.685,368.462 M414.221,368.261
			c-0.566,0-1.133-0.232-1.537-0.689c-0.756-0.85-0.68-2.15,0.168-2.906l0.75-0.672c0.844-0.764,2.146-0.697,2.906,0.145
			c0.766,0.844,0.699,2.146-0.145,2.908l-0.773,0.695C415.198,368.091,414.708,368.261,414.221,368.261 M162.061,359.259
			c-0.54,0-1.076-0.209-1.48-0.629l-0.712-0.734c-0.79-0.818-0.768-2.121,0.048-2.91c0.821-0.791,2.123-0.77,2.912,0.047
			l0.711,0.734c0.791,0.82,0.768,2.123-0.048,2.912C163.092,359.066,162.575,359.259,162.061,359.259 M423.825,359.041
			c-0.516,0-1.031-0.193-1.432-0.58c-0.816-0.789-0.838-2.092-0.049-2.91l0.697-0.727c0.787-0.822,2.094-0.854,2.912-0.072
			c0.824,0.785,0.855,2.088,0.072,2.912l-0.723,0.75C424.901,358.832,424.364,359.041,423.825,359.041 M153.132,349.382
			c-0.589,0-1.172-0.25-1.58-0.734l-0.666-0.801c-0.723-0.877-0.599-2.174,0.28-2.896c0.876-0.725,2.177-0.602,2.897,0.279
			l0.645,0.771c0.73,0.871,0.615,2.17-0.255,2.9C154.067,349.224,153.599,349.382,153.132,349.382 M432.731,349.14
			c-0.467,0-0.936-0.154-1.32-0.479c-0.871-0.73-0.984-2.029-0.256-2.9l0.646-0.773c0.719-0.877,2.021-1.002,2.896-0.279
			c0.879,0.725,1.004,2.02,0.279,2.896l-0.668,0.803C433.903,348.89,433.321,349.14,432.731,349.14 M144.945,338.886
			c-0.639,0-1.268-0.295-1.67-0.852l-0.601-0.838c-0.664-0.924-0.451-2.209,0.472-2.873s2.209-0.451,2.873,0.473l0.593,0.824
			c0.665,0.924,0.458,2.211-0.462,2.875C145.784,338.759,145.364,338.886,144.945,338.886 M440.903,338.621
			c-0.416,0-0.836-0.125-1.199-0.387c-0.922-0.664-1.135-1.947-0.473-2.873l0.594-0.828c0.656-0.928,1.941-1.143,2.871-0.482
			c0.926,0.66,1.141,1.943,0.48,2.871l-0.6,0.84C442.174,338.322,441.543,338.621,440.903,338.621 M137.549,327.826
			c-0.69,0-1.363-0.346-1.753-0.979l-0.543-0.885c-0.591-0.971-0.281-2.238,0.691-2.826c0.973-0.588,2.24-0.279,2.827,0.691
			l0.527,0.855c0.597,0.969,0.298,2.236-0.67,2.834C138.293,327.726,137.919,327.826,137.549,327.826 M448.288,327.531
			c-0.367,0-0.738-0.1-1.074-0.307c-0.969-0.594-1.271-1.861-0.678-2.832l0.531-0.863c0.586-0.975,1.854-1.283,2.824-0.691
			c0.975,0.59,1.283,1.855,0.693,2.828l-0.539,0.883C449.655,327.181,448.979,327.531,448.288,327.531 M130.981,316.257
			c-0.744,0-1.462-0.406-1.83-1.109l-0.474-0.924c-0.517-1.012-0.115-2.25,0.898-2.766c1.018-0.52,2.252-0.115,2.769,0.898
			l0.462,0.893c0.523,1.006,0.131,2.252-0.878,2.775C131.624,316.183,131.3,316.257,130.981,316.257 M454.848,315.931
			c-0.316,0-0.641-0.074-0.941-0.229c-1.01-0.523-1.406-1.766-0.885-2.775l0.463-0.898c0.512-1.014,1.748-1.424,2.766-0.904
			c1.014,0.514,1.42,1.752,0.904,2.768l-0.475,0.928C456.315,315.525,455.594,315.931,454.848,315.931 M125.277,304.244
			c-0.798,0-1.556-0.468-1.892-1.248l-0.408-0.955c-0.44-1.051,0.052-2.256,1.1-2.697c1.047-0.436,2.254,0.049,2.696,1.101
			l0.396,0.929c0.448,1.047-0.034,2.256-1.08,2.705C125.824,304.188,125.548,304.244,125.277,304.244 M460.543,303.876
			c-0.27,0-0.547-0.055-0.811-0.168c-1.049-0.447-1.529-1.658-1.08-2.703l0.395-0.932c0.443-1.049,1.646-1.533,2.695-1.101
			c1.049,0.44,1.541,1.647,1.102,2.696l-0.408,0.959C462.1,303.412,461.34,303.876,460.543,303.876 M120.466,291.826
			c-0.857,0-1.656-0.535-1.948-1.393l-0.332-0.973c-0.368-1.074,0.207-2.244,1.283-2.612c1.073-0.364,2.247,0.204,2.613,1.282
			l0.332,0.972c0.368,1.075-0.207,2.245-1.283,2.612C120.91,291.791,120.687,291.826,120.466,291.826 M465.342,291.436
			c-0.223,0-0.443-0.036-0.666-0.11c-1.076-0.367-1.65-1.537-1.283-2.613l0.33-0.969c0.367-1.078,1.537-1.65,2.611-1.289
			c1.078,0.365,1.652,1.535,1.289,2.611l-0.334,0.977C466.999,290.899,466.198,291.436,465.342,291.436 M116.578,279.089
			c-0.909,0-1.739-0.604-1.987-1.525l-0.265-1.01c-0.286-1.102,0.376-2.225,1.476-2.51c1.097-0.291,2.223,0.377,2.509,1.477
			l0.257,0.979c0.296,1.098-0.356,2.226-1.456,2.52C116.934,279.068,116.755,279.089,116.578,279.089 M469.211,278.671
			c-0.174,0-0.348-0.022-0.52-0.066c-1.104-0.287-1.762-1.411-1.475-2.512l0.26-0.994c0.285-1.102,1.424-1.758,2.512-1.475
			c1.102,0.287,1.762,1.412,1.473,2.512l-0.258,0.994C470.961,278.058,470.125,278.671,469.211,278.671 M113.641,266.102
			c-0.974,0-1.838-0.69-2.023-1.683l-0.187-1.012c-0.207-1.117,0.533-2.191,1.651-2.398c1.125-0.213,2.191,0.535,2.398,1.65
			l0.187,1.008c0.207,1.117-0.531,2.192-1.648,2.399C113.892,266.091,113.765,266.102,113.641,266.102 M472.127,265.675
			c-0.121,0-0.242-0.01-0.365-0.032c-1.119-0.198-1.861-1.269-1.664-2.388l0.184-1.012c0.201-1.117,1.27-1.863,2.391-1.662
			c1.119,0.201,1.863,1.271,1.662,2.391l-0.182,1.007C473.975,264.975,473.104,265.675,472.127,265.675 M111.658,252.934
			c-1.035,0-1.926-0.774-2.045-1.828l-0.112-1.026c-0.121-1.131,0.698-2.146,1.828-2.267c1.137-0.125,2.147,0.699,2.265,1.827
			l0.113,1.008c0.126,1.13-0.688,2.146-1.818,2.275C111.813,252.931,111.734,252.934,111.658,252.934 M474.079,252.503
			c-0.072,0-0.146-0.004-0.219-0.014c-1.133-0.119-1.951-1.134-1.83-2.264l0.107-1.02c0.121-1.131,1.141-1.965,2.266-1.83
			c1.131,0.121,1.949,1.135,1.83,2.264l-0.109,1.021C476.01,251.718,475.118,252.503,474.079,252.503 M475.063,239.225
			c-0.025,0-0.051,0-0.074-0.001c-1.137-0.041-2.025-0.993-1.984-2.129l0.031-1.014c0.035-1.115,0.949-1.998,2.057-1.998h0.062
			c1.137,0.033,2.029,0.982,1.998,2.119l-0.035,1.036C477.079,238.352,476.165,239.225,475.063,239.225 M108.578,237.662
			l2.059-0.063l-2.063-0.052l-0.032-0.896c-0.043-1.136,0.846-2.091,1.982-2.131c1.112-0.073,2.089,0.846,2.131,1.98l0.031,0.836
			l-2.049,0.263L108.578,237.662z M110.572,226.339h-0.062c-1.136-0.034-2.031-0.983-1.998-2.119l0.036-1.038
			c0.038-1.138,1.079-2.063,2.129-1.983c1.136,0.04,2.025,0.993,1.984,2.129l-0.032,1.014
			C112.595,225.457,111.68,226.339,110.572,226.339 M475.079,225.908c-1.105,0-2.018-0.875-2.055-1.986l-0.055-1.377
			c-0.053-1.137,0.822-2.103,1.959-2.155c1.098-0.072,2.102,0.821,2.154,1.958l0.053,1.43c0.041,1.137-0.848,2.09-1.982,2.129
			C475.127,225.908,475.104,225.908,475.079,225.908 M111.467,213.054c-0.072,0-0.147-0.004-0.219-0.014
			c-1.132-0.119-1.95-1.133-1.83-2.264l0.109-1.02c0.118-1.133,1.154-1.952,2.264-1.829c1.132,0.12,1.95,1.133,1.83,2.263
			l-0.109,1.02C113.399,212.27,112.506,213.054,111.467,213.054 M474.102,212.244c-1.031,0-1.924-0.775-2.043-1.828l-0.115-1.019
			c-0.125-1.13,0.688-2.147,1.816-2.276c1.119-0.119,2.148,0.688,2.277,1.818l0.113,1.016c0.127,1.129-0.686,2.147-1.814,2.277
			C474.258,212.24,474.18,212.244,474.102,212.244 M113.331,199.87c-0.121,0-0.244-0.01-0.366-0.033
			c-1.12-0.2-1.864-1.27-1.663-2.39l0.185-1.019c0.205-1.118,1.281-1.87,2.399-1.651c1.117,0.207,1.858,1.281,1.65,2.399
			l-0.181,0.999C115.176,199.169,114.308,199.87,113.331,199.87 M472.18,199.068c-0.973,0-1.838-0.693-2.021-1.684l-0.188-0.995
			c-0.213-1.118,0.52-2.196,1.635-2.411c1.105-0.209,2.197,0.518,2.41,1.635l0.191,1.023c0.207,1.118-0.533,2.191-1.65,2.398
			C472.43,199.059,472.303,199.068,472.18,199.068 M116.16,186.855c-0.169,0-0.34-0.02-0.511-0.065
			c-1.102-0.279-1.767-1.401-1.486-2.503l0.259-1.005c0.286-1.101,1.416-1.753,2.512-1.474c1.099,0.288,1.761,1.412,1.473,2.512
			l-0.255,0.985C117.915,186.237,117.078,186.855,116.16,186.855 M469.299,186.067c-0.914,0-1.748-0.613-1.99-1.54l-0.258-0.978
			c-0.295-1.098,0.357-2.226,1.457-2.521c1.082-0.292,2.227,0.356,2.521,1.455l0.264,1.005c0.289,1.1-0.373,2.224-1.473,2.511
			C469.647,186.045,469.473,186.067,469.299,186.067 M119.939,174.064c-0.215,0-0.434-0.034-0.651-0.106
			c-1.078-0.358-1.661-1.524-1.301-2.604l0.334-0.987c0.368-1.078,1.536-1.644,2.614-1.283c1.075,0.369,1.65,1.538,1.282,2.614
			l-0.325,0.959C121.604,173.52,120.802,174.064,119.939,174.064 M465.477,173.312c-0.855,0-1.654-0.536-1.945-1.393l-0.33-0.955
			c-0.375-1.073,0.189-2.247,1.264-2.623c1.08-0.374,2.248,0.193,2.625,1.264l0.336,0.983c0.369,1.076-0.207,2.246-1.281,2.614
			C465.922,173.276,465.7,173.312,465.477,173.312 M124.652,161.591c-0.268,0-0.537-0.052-0.799-0.16
			c-1.047-0.441-1.54-1.647-1.099-2.697l0.406-0.959c0.45-1.045,1.659-1.524,2.704-1.079c1.046,0.448,1.528,1.658,1.08,2.704
			l-0.394,0.931C126.218,161.12,125.454,161.591,124.652,161.591 M460.727,160.874c-0.799,0-1.561-0.468-1.895-1.25l-0.4-0.939
			c-0.447-1.045,0.033-2.255,1.078-2.704c1.049-0.444,2.254,0.035,2.705,1.08l0.406,0.947c0.445,1.045-0.041,2.256-1.086,2.702
			C461.272,160.822,460.999,160.874,460.727,160.874 M130.263,149.5c-0.312,0-0.629-0.07-0.929-0.223
			c-1.013-0.512-1.419-1.751-0.904-2.766l0.474-0.927c0.523-1.009,1.761-1.403,2.774-0.884c1.009,0.522,1.405,1.765,0.885,2.774
			l-0.462,0.898C131.739,149.088,131.015,149.5,130.263,149.5 M455.081,148.83c-0.746,0-1.467-0.406-1.832-1.114l-0.469-0.903
			c-0.523-1.007-0.131-2.251,0.879-2.776c1.004-0.523,2.252-0.131,2.775,0.878l0.473,0.911c0.521,1.012,0.125,2.252-0.885,2.775
			C455.721,148.755,455.397,148.83,455.081,148.83 M136.745,137.856c-0.362,0-0.728-0.095-1.062-0.296
			c-0.973-0.587-1.287-1.851-0.7-2.826l0.537-0.881c0.589-0.973,1.856-1.283,2.827-0.691c0.973,0.588,1.283,1.855,0.692,2.826
			l-0.529,0.873C138.124,137.502,137.442,137.856,136.745,137.856 M448.565,137.233c-0.697,0-1.377-0.352-1.764-0.991l-0.525-0.857
			c-0.598-0.967-0.299-2.236,0.67-2.833c0.963-0.599,2.232-0.299,2.832,0.67l0.543,0.884c0.592,0.972,0.281,2.238-0.691,2.827
			C449.295,137.137,448.928,137.233,448.565,137.233 M144.059,126.719c-0.41,0-0.825-0.123-1.185-0.376
			c-0.928-0.656-1.151-1.94-0.496-2.869l0.605-0.849c0.662-0.926,1.948-1.137,2.873-0.472c0.923,0.663,1.136,1.948,0.473,2.873
			l-0.585,0.82C145.341,126.415,144.706,126.719,144.059,126.719 M441.215,126.14c-0.641,0-1.271-0.298-1.674-0.859l-0.594-0.824
			c-0.666-0.923-0.459-2.21,0.463-2.875c0.922-0.668,2.209-0.461,2.875,0.462l0.602,0.837c0.662,0.925,0.449,2.209-0.473,2.873
			C442.049,126.015,441.631,126.14,441.215,126.14 M152.161,116.144c-0.46,0-0.925-0.155-1.307-0.471
			c-0.878-0.723-1.003-2.02-0.279-2.897l0.665-0.802c0.732-0.869,2.031-0.985,2.901-0.255c0.871,0.732,0.985,2.03,0.255,2.901
			l-0.645,0.774C153.345,115.889,152.756,116.144,152.161,116.144 M433.079,115.604c-0.588,0-1.172-0.251-1.58-0.736l-0.656-0.784
			c-0.729-0.87-0.615-2.169,0.254-2.901c0.877-0.726,2.172-0.611,2.902,0.255l0.656,0.785c0.73,0.87,0.615,2.168-0.254,2.9
			C434.014,115.446,433.545,115.604,433.079,115.604 M161.007,106.186c-0.51,0-1.021-0.189-1.419-0.567
			c-0.825-0.784-0.857-2.087-0.073-2.911l0.722-0.75c0.792-0.816,2.093-0.837,2.911-0.048c0.816,0.79,0.838,2.092,0.048,2.911
			l-0.697,0.726C162.095,105.971,161.55,106.186,161.007,106.186 M424.194,105.688c-0.539,0-1.076-0.209-1.48-0.627l-0.711-0.736
			c-0.791-0.818-0.77-2.121,0.047-2.911c0.82-0.79,2.123-0.77,2.912,0.048l0.711,0.736c0.791,0.818,0.77,2.121-0.047,2.911
			C425.225,105.496,424.708,105.688,424.194,105.688 M170.549,96.896c-0.561,0-1.12-0.229-1.526-0.677
			c-0.764-0.842-0.698-2.145,0.144-2.907l0.774-0.698c0.847-0.758,2.152-0.679,2.908,0.169c0.755,0.851,0.679,2.151-0.169,2.907
			l-0.75,0.674C171.536,96.723,171.041,96.896,170.549,96.896 M414.612,96.44c-0.49,0-0.982-0.173-1.375-0.527l-0.76-0.675
			c-0.848-0.756-0.924-2.057-0.168-2.907c0.756-0.849,2.059-0.925,2.906-0.169l0.771,0.688c0.846,0.757,0.916,2.06,0.156,2.907
			C415.737,96.209,415.174,96.44,414.612,96.44 M180.74,88.329c-0.616,0-1.222-0.273-1.629-0.796
			c-0.697-0.899-0.534-2.192,0.364-2.889l0.808-0.627c0.903-0.7,2.192-0.533,2.889,0.363c0.698,0.899,0.535,2.192-0.363,2.889
			L182,87.896C181.624,88.188,181.18,88.329,180.74,88.329 M404.379,87.913c-0.439,0-0.885-0.141-1.26-0.433l-0.799-0.615
			c-0.904-0.689-1.078-1.982-0.389-2.885c0.688-0.9,1.982-1.081,2.887-0.388l0.826,0.635c0.896,0.698,1.061,1.991,0.363,2.89
			C405.602,87.64,404.995,87.913,404.379,87.913 M191.524,80.525c-0.666,0-1.319-0.321-1.715-0.916
			c-0.631-0.947-0.376-2.224,0.571-2.855l0.85-0.567c0.949-0.629,2.226-0.374,2.855,0.571c0.631,0.946,0.376,2.223-0.571,2.855
			l-0.85,0.567C192.312,80.414,191.916,80.525,191.524,80.525 M393.554,80.146c-0.39,0-0.783-0.11-1.134-0.341l-0.85-0.559
			c-0.951-0.624-1.217-1.9-0.595-2.851c0.625-0.951,1.899-1.216,2.851-0.595l0.864,0.571c0.949,0.627,1.208,1.906,0.581,2.853
			C394.877,79.823,394.221,80.146,393.554,80.146 M202.841,73.536c-0.716,0-1.409-0.372-1.79-1.038
			c-0.565-0.986-0.22-2.243,0.766-2.808l0.911-0.515c0.989-0.549,2.246-0.197,2.801,0.799c0.553,0.993,0.195,2.245-0.799,2.8
			l-0.87,0.491C203.539,73.45,203.186,73.536,202.841,73.536 M382.188,73.188c-0.342,0-0.689-0.084-1.01-0.265l-0.885-0.495
			c-0.992-0.555-1.352-1.807-0.799-2.8c0.557-0.998,1.813-1.347,2.801-0.798l0.906,0.506c0.99,0.559,1.34,1.816,0.78,2.805
			C383.603,72.812,382.907,73.188,382.188,73.188 M214.638,67.388c-0.77,0-1.508-0.432-1.86-1.172
			c-0.49-1.026-0.054-2.256,0.971-2.744l0.934-0.443c1.031-0.484,2.253-0.042,2.74,0.988c0.482,1.029,0.042,2.255-0.987,2.74
			l-0.913,0.43C215.237,67.324,214.936,67.388,214.638,67.388 M370.345,67.077c-0.291,0-0.587-0.063-0.87-0.194l-0.926-0.432
			c-1.03-0.48-1.479-1.703-1.002-2.734c0.48-1.033,1.703-1.482,2.734-1.001l0.938,0.436c1.028,0.483,1.474,1.707,0.993,2.738
			C371.862,66.638,371.122,67.077,370.345,67.077 M226.846,62.13c-0.827,0-1.605-0.501-1.92-1.317
			c-0.41-1.062,0.118-2.254,1.178-2.662l0.961-0.37c1.069-0.406,2.254,0.125,2.66,1.184c0.408,1.062-0.123,2.252-1.185,2.66
			l-0.953,0.366C227.344,62.085,227.093,62.13,226.846,62.13 M358.086,61.845c-0.24,0-0.485-0.042-0.728-0.133l-0.957-0.362
			c-1.063-0.399-1.603-1.586-1.204-2.651c0.399-1.066,1.588-1.598,2.651-1.204l0.965,0.365c1.063,0.403,1.601,1.589,1.198,2.654
			C359.702,61.337,358.918,61.845,358.086,61.845 M239.429,57.771c-0.88,0-1.695-0.567-1.966-1.452
			c-0.336-1.085,0.273-2.24,1.359-2.573l0.995-0.304c1.094-0.325,2.236,0.292,2.566,1.38c0.325,1.089-0.292,2.237-1.38,2.565
			l-0.966,0.292C239.833,57.742,239.63,57.771,239.429,57.771 M345.465,57.533c-0.196,0-0.397-0.029-0.596-0.089l-0.969-0.287
			c-1.091-0.32-1.717-1.464-1.396-2.556c0.318-1.087,1.457-1.716,2.556-1.397l1.001,0.3c1.09,0.329,1.705,1.477,1.375,2.565
			C347.167,56.959,346.35,57.533,345.465,57.533 M252.296,54.352c-0.939,0-1.787-0.645-2.004-1.6
			c-0.253-1.108,0.438-2.212,1.548-2.465l1.011-0.227c1.106-0.25,2.21,0.45,2.457,1.56c0.249,1.11-0.451,2.21-1.56,2.457
			l-0.991,0.223C252.604,54.335,252.449,54.352,252.296,54.352 M332.583,54.163c-0.148,0-0.301-0.016-0.451-0.05l-0.988-0.215
			c-1.111-0.241-1.816-1.337-1.576-2.449c0.241-1.114,1.344-1.817,2.449-1.576l1.013,0.223c1.11,0.247,1.81,1.347,1.562,2.457
			C334.375,53.512,333.525,54.163,332.583,54.163"/>
	</g>
	<g>
		<defs>
			<polygon id="SVGID_63_" points="26.643,-38.853 26.643,173.823 293.86,227.175 527.737,178.678 530.514,-38.853 			"/>
		</defs>
		<clipPath id="SVGID_64_">
			<use xlink:href="#SVGID_63_"  overflow="visible"/>
		</clipPath>
		<path clip-path="url(#SVGID_64_)" fill="#E6D1AB" d="M344.993,63.578l-26.854,2.193c79.714,12.223,140.964,81.265,140.964,164.344
			c0,91.68-74.587,166.268-166.267,166.268c-91.679,0-166.265-74.588-166.265-166.268c0-83.339,61.635-152.546,141.715-164.45
			l-26.862-2.193c-0.089-0.008-0.174-0.03-0.261-0.047c-71.071,22.078-122.827,88.453-122.827,166.69
			c0,96.221,78.281,174.502,174.5,174.502c96.221,0,174.503-78.281,174.503-174.502C467.338,152.057,415.815,85.807,344.993,63.578"
			/>
	</g>
</g>
<g>
	<g>
		<defs>
			<rect id="SVGID_65_" x="-384.79" y="-471.798" width="1366" height="1366"/>
		</defs>
		<clipPath id="SVGID_66_">
			<use xlink:href="#SVGID_65_"  overflow="visible"/>
		</clipPath>
		<path clip-path="url(#SVGID_66_)" fill="#E6D1AB" d="M306.592,68.399l15.15,2.72l-14.336-6.907l38.691-3.16l-37.521-2.854
			l16.827-6.764l-18.823,3.664l26.229-18.033l-28.172,13.432l8.498-11.057l-10.88,8.362l13.738-28.817l-18.273,26.577l1.988-14.064
			l-5.03,12.477l-2.366-29.993L289.781,46.1l-5.359-13.034l1.437,10.697l-17.035-24.778l14.378,30.16l-12.627-9.705l7.858,10.224
			l-26.425-12.599L278.6,55.348l-19.1-3.136l16.377,6.235l-34.255,2.605l34.61,2.827l-13.293,7.05l12.267-1.709l-23.102,15.884
			l28.797-13.73l-10.194,13.263l11.135-8.557l-12.922,27.103l17.397-25.305l-1.764,13.134l4.604-11.195l2.7,47.292l2.717-47.596
			l5.269,13.066l-2.319-16.401l18.566,27.005l-12.324-25.848l9.502,7.302l-9.378-12.202l29.017,12.669L306.592,68.399z
			 M292.424,74.631c-7.367,0-13.359-5.992-13.359-13.359c0-7.368,5.992-13.36,13.359-13.36c7.368,0,13.36,5.992,13.36,13.36
			C305.784,68.639,299.792,74.631,292.424,74.631"/>
	</g>
	<g>
		<defs>
			<rect id="SVGID_67_" x="-384.79" y="-471.798" width="1366" height="1366"/>
		</defs>
		<clipPath id="SVGID_68_">
			<use xlink:href="#SVGID_67_"  overflow="visible"/>
		</clipPath>
		<path clip-path="url(#SVGID_68_)" fill="#E6D1AB" d="M292.424,49.125c-6.696,0-12.145,5.45-12.145,12.146
			s5.449,12.146,12.145,12.146c6.698,0,12.146-5.45,12.146-12.146S299.122,49.125,292.424,49.125 M286.087,68.875
			c-4.206-3.569-4.574-10.047-0.821-14.47c0,0-2.499,5.594,3.411,10.925c6.002,5.413,11.82,2,11.82,2
			C296.745,71.752,290.293,72.444,286.087,68.875"/>
	</g>
</g>
</svg>
